<?xml version="1.0" standalone="no"?>
<!DOCTYPE svg PUBLIC "-//W3C//DTD SVG 20010904//EN"
 "http://www.w3.org/TR/2001/REC-SVG-20010904/DTD/svg10.dtd">
<svg version="1.0" xmlns="http://www.w3.org/2000/svg"
 width="880.000000pt" height="500.000000pt" viewBox="0 0 880.000000 500.000000"
 preserveAspectRatio="xMidYMid meet">

<g transform="translate(0.000000,500.000000) scale(0.100000,-0.100000)"
fill="#000000" stroke="none">
<path d="M6399 3851 c11 -7 9 -10 -10 -13 -20 -2 -16 -6 24 -22 27 -10 51 -15
55 -11 10 9 -45 55 -66 55 -14 0 -14 -2 -3 -9z"/>
<path d="M5995 3801 c-48 -35 -87 -100 -95 -156 -3 -26 -10 -40 -20 -40 -10 0
-14 8 -13 23 2 16 -1 21 -10 15 -19 -12 -49 -14 -42 -3 3 6 0 17 -8 25 -13 13
-16 13 -21 0 -3 -8 -11 -15 -17 -15 -7 0 -9 3 -6 7 4 3 -1 12 -11 19 -13 9
-19 9 -24 1 -6 -9 -8 -8 -8 1 0 7 -4 10 -10 7 -5 -3 -10 -2 -10 4 0 5 -9 9
-20 8 -11 -1 -20 -5 -20 -9 0 -4 -4 -8 -10 -8 -5 0 -7 8 -4 18 5 16 5 16 -6
-1 -6 -9 -15 -15 -21 -12 -5 4 -9 1 -9 -6 0 -7 -7 -4 -15 7 -9 11 -14 14 -15
6 0 -21 -23 -39 -42 -34 -10 2 -18 9 -18 14 0 5 -7 2 -16 -7 -12 -12 -13 -19
-4 -29 9 -11 8 -14 -4 -12 -9 1 -18 5 -22 8 -7 8 -44 -23 -44 -37 0 -6 -11
-19 -25 -29 -14 -10 -25 -25 -25 -32 0 -8 -6 -14 -14 -14 -10 0 -13 -8 -10
-25 2 -15 0 -25 -7 -25 -6 0 -9 -7 -5 -15 3 -8 0 -15 -7 -16 -7 0 -3 -4 8 -9
17 -7 17 -9 3 -9 -19 -1 -26 -21 -8 -21 6 0 9 -5 8 -12 -4 -15 -48 -58 -59
-58 -12 0 -11 27 1 35 12 7 4 25 -11 25 -5 0 -9 -7 -9 -15 0 -8 -5 -15 -11
-15 -6 0 -9 7 -5 15 7 20 -4 19 -21 -2 -13 -17 -14 -16 -8 5 5 16 2 22 -9 22
-9 0 -16 -4 -16 -10 0 -5 -6 -7 -14 -4 -8 3 -12 12 -10 19 4 9 -1 13 -14 12
-12 0 -18 -6 -15 -14 3 -7 -2 -13 -11 -13 -9 0 -16 8 -16 19 0 26 -26 34 -53
16 -23 -15 -55 -6 -43 13 4 6 -2 8 -15 5 -12 -4 -24 -14 -26 -24 -4 -14 -9
-16 -23 -9 -9 5 -20 6 -24 3 -3 -3 -6 5 -7 18 0 13 -3 18 -6 10 -7 -18 -37
-47 -54 -53 -8 -3 -19 4 -26 16 l-12 21 -1 -22 c0 -28 -8 -29 -26 -5 -12 15
-13 14 -14 -15 0 -38 -5 -40 -34 -15 l-20 17 18 -30 c19 -30 19 -30 -1 -12
-23 20 -37 23 -27 5 6 -10 4 -10 -7 0 -7 6 -17 12 -22 12 -4 0 -5 -6 -1 -12 6
-10 4 -10 -8 0 -14 11 -18 10 -27 -5 -9 -15 -10 -16 -11 -2 0 9 -39 45 -87 81
-131 95 -160 115 -144 95 13 -17 4 -24 -15 -9 -5 4 4 -5 21 -20 16 -15 35 -27
40 -27 6 0 1 6 -9 14 -11 8 -15 15 -9 15 5 0 18 -10 29 -22 10 -13 15 -20 10
-16 -8 7 -46 -32 -46 -47 0 -4 8 3 19 16 21 26 13 30 101 -42 25 -21 54 -39
65 -42 15 -3 13 -5 -8 -6 -16 0 -26 -5 -22 -11 3 -5 1 -10 -5 -10 -15 0 -243
57 -300 75 -25 8 -85 24 -135 36 -49 12 -94 26 -99 31 -6 4 -18 8 -28 8 -24 0
-346 107 -466 154 -126 51 -136 41 -13 -12 78 -35 101 -49 105 -68 6 -22 98
-94 120 -94 6 0 -10 13 -35 28 -47 31 -85 69 -77 77 3 3 65 -17 139 -43 145
-53 308 -104 661 -206 240 -70 305 -94 326 -119 23 -27 -1 -26 -93 4 -172 56
-896 222 -953 218 -10 -1 20 -9 64 -18 71 -15 86 -22 114 -54 29 -33 125 -97
146 -97 5 0 -13 13 -41 29 -51 30 -121 89 -113 96 12 13 798 -185 840 -212 8
-4 -44 -53 -57 -53 -4 0 5 10 20 22 26 20 26 22 9 29 -27 11 -36 11 -30 0 7
-10 -13 -9 -31 2 -6 4 -14 3 -18 -3 -4 -6 -11 -7 -17 -4 -7 4 -8 2 -4 -5 4 -6
12 -9 17 -6 5 4 9 1 9 -5 0 -6 5 -8 10 -5 6 3 10 1 10 -5 0 -7 -7 -9 -16 -6
-53 20 -312 67 -624 112 -197 28 -462 36 -565 16 -38 -7 -15 -8 95 -5 80 2
165 0 190 -4 l45 -9 -47 -28 c-27 -15 -48 -30 -48 -32 0 -7 98 45 105 55 3 6
18 8 33 6 15 -3 95 -16 178 -30 225 -37 215 -34 204 -56 -6 -10 -10 -28 -9
-41 0 -18 3 -15 12 12 8 22 19 36 32 38 34 4 321 -64 296 -71 -15 -4 -20 -10
-15 -18 4 -8 3 -10 -5 -5 -6 4 -8 12 -5 18 4 6 -3 5 -16 -2 -15 -8 -20 -8 -16
-1 6 9 -6 13 -30 10 -4 0 -11 5 -15 13 -7 11 -9 11 -9 -1 0 -11 -3 -11 -17 0
-16 12 -17 12 -6 -2 7 -8 10 -25 6 -37 -3 -13 -1 -22 6 -22 7 0 9 5 6 10 -3 6
-1 10 4 10 6 0 11 -5 11 -10 0 -7 7 -7 21 1 17 9 20 8 17 -3 -6 -18 -262 -23
-478 -8 -91 6 -232 13 -315 15 l-150 3 130 -8 c72 -4 137 -8 145 -9 8 -1 -8
-14 -36 -30 -48 -28 -87 -82 -70 -98 3 -3 6 1 6 10 0 27 49 75 95 93 40 15 61
16 197 5 84 -6 199 -14 256 -17 78 -5 102 -10 98 -20 -3 -7 0 -15 7 -17 9 -3
9 -8 -1 -20 -10 -11 26 -3 119 29 72 24 134 42 137 39 3 -2 -1 -7 -9 -9 -8 -3
-74 -24 -147 -48 -99 -32 -129 -45 -119 -53 21 -16 17 -45 -7 -46 -21 0 -21
-1 -1 -9 14 -6 15 -9 5 -10 -9 -1 -6 -5 8 -11 27 -10 25 -32 -4 -37 -40 -8
-37 -22 4 -22 50 0 53 -11 9 -34 -26 -14 -32 -24 -32 -49 0 -23 -6 -35 -22
-43 -13 -6 -20 -15 -15 -20 4 -4 -1 -2 -10 5 -15 11 -17 10 -13 -9 3 -17 1
-19 -9 -11 -13 11 -36 -3 -36 -24 0 -5 5 -3 10 5 5 8 10 10 10 4 0 -20 -27
-37 -36 -23 -5 8 -3 9 6 4 9 -6 11 -4 6 4 -6 9 -13 8 -27 -5 -24 -21 -25 -31
-1 -13 15 13 16 12 3 -4 -10 -13 -17 -15 -27 -6 -18 15 -18 -2 1 -27 8 -10 15
-23 15 -28 0 -5 -35 37 -77 95 -64 85 -83 104 -105 105 -15 0 -25 -3 -23 -7 3
-4 -2 -6 -11 -5 -8 1 -20 9 -25 17 -5 8 -9 10 -9 4 0 -5 -14 12 -31 38 -18 26
-34 46 -36 43 -6 -5 77 -138 185 -296 61 -89 76 -116 52 -95 -18 17 -30 24
-26 18 12 -21 16 -54 5 -48 -5 4 -7 10 -4 15 3 5 1 11 -4 14 -5 4 -8 -5 -7
-19 4 -29 -26 -59 -58 -60 -28 0 -55 -22 -67 -53 -8 -20 -12 -22 -24 -12 -16
13 -35 6 -35 -13 0 -7 4 -6 10 3 5 8 11 12 15 9 3 -3 -3 -14 -14 -23 -14 -13
-21 -14 -27 -5 -5 8 -3 10 7 4 8 -5 10 -4 6 0 -4 5 -14 10 -22 11 -11 2 -12
-2 -5 -16 7 -14 6 -18 -5 -16 -8 1 -18 6 -22 11 -4 4 -2 5 6 0 10 -5 12 -4 7
4 -4 6 -13 8 -19 4 -12 -8 -17 -9 -37 -12 -5 0 -10 -6 -10 -12 0 -6 5 -7 13
-2 16 10 41 14 32 5 -4 -4 -11 -8 -16 -8 -5 -1 -12 -2 -16 -3 -3 0 4 -13 18
-28 68 -76 -133 112 -225 211 -59 64 -113 114 -119 113 -7 -1 -11 4 -9 11 1 6
-4 11 -10 10 -7 -2 -12 3 -10 10 1 8 -2 11 -9 7 -7 -5 -3 -15 12 -31 12 -13
26 -21 32 -17 6 4 7 1 2 -7 -6 -9 -4 -11 6 -5 8 5 10 4 6 0 -12 -14 -37 -15
-34 -2 1 7 -4 11 -11 9 -6 -1 -11 4 -10 10 2 7 -2 12 -7 11 -6 -1 -11 9 -11
23 0 13 4 24 10 24 5 0 6 3 3 6 -4 4 -13 1 -21 -5 -12 -10 -14 -9 -9 8 4 16 0
21 -13 22 -11 0 -13 3 -7 6 10 3 10 10 1 26 -10 21 -10 21 7 7 20 -16 21 -19
-23 67 -18 36 -19 35 -91 -30 l-43 -39 35 -51 c70 -106 166 -217 327 -377 91
-90 157 -159 148 -151 -14 11 -21 11 -33 1 -8 -7 -13 -16 -10 -19 2 -4 -3 -8
-11 -8 -11 0 -10 5 6 22 15 16 17 22 6 22 -8 0 -14 -5 -13 -11 1 -6 -3 -10 -8
-9 -6 1 -12 -10 -13 -23 -1 -17 2 -23 10 -18 7 4 8 3 4 -5 -4 -6 -12 -9 -17
-6 -8 6 -13 -8 -10 -28 0 -4 -5 -6 -11 -5 -7 2 -12 -3 -10 -10 1 -8 -2 -11 -8
-7 -7 4 -3 16 10 32 11 14 20 31 20 37 -1 6 -6 1 -13 -12 -7 -12 -17 -19 -21
-15 -4 4 -6 1 -4 -7 1 -8 -2 -14 -8 -13 -7 1 -10 -6 -7 -16 3 -10 0 -22 -7
-26 -8 -5 -6 -13 7 -28 26 -31 -135 82 -260 182 -59 47 -112 85 -118 83 -5 -1
-9 4 -9 10 0 9 -3 8 -10 -2 -14 -23 -46 -21 -47 4 -2 19 -1 19 8 4 6 -10 14
-18 20 -18 5 0 -1 12 -15 27 -14 15 -23 30 -20 35 3 5 0 7 -8 6 -7 -2 -12 2
-11 8 1 6 -5 11 -12 11 -10 0 -12 -4 -5 -12 5 -7 6 -16 2 -20 -4 -5 -1 -5 7 0
10 6 12 4 6 -5 -6 -9 -4 -11 5 -5 9 6 11 4 5 -5 -5 -9 -4 -11 3 -6 8 5 10 1 6
-9 -6 -14 -8 -14 -19 2 -7 10 -13 23 -15 28 -1 6 -9 18 -17 28 -9 9 -13 17 -9
17 4 0 2 9 -4 19 -7 14 -7 22 2 27 7 5 8 3 3 -6 -5 -8 -4 -11 2 -7 6 4 9 -4 7
-19 -2 -21 0 -23 12 -13 16 13 19 23 3 14 -6 -4 -9 -1 -7 7 3 13 -51 97 -63
98 -3 0 -30 -50 -59 -111 l-54 -112 67 -63 c101 -96 252 -213 399 -310 142
-94 171 -115 123 -92 -31 16 -55 14 -55 -4 0 -7 5 -6 14 1 10 8 16 9 21 1 4
-6 1 -9 -7 -8 -7 2 -12 -3 -11 -9 2 -7 -3 -12 -10 -10 -6 1 -11 -5 -9 -13 3
-11 -1 -10 -16 4 -20 17 -21 17 -30 -1 -5 -10 -8 -26 -7 -36 3 -13 0 -15 -9
-8 -8 7 -16 4 -25 -11 -11 -18 -11 -20 1 -15 8 3 15 -1 15 -8 0 -17 -141 53
-296 147 -76 46 -111 63 -107 51 4 -12 -1 -9 -14 7 -11 14 -20 21 -20 16 0 -5
-8 -2 -17 5 -11 10 -14 10 -9 2 4 -8 2 -13 -4 -13 -6 0 -8 -6 -5 -12 4 -7 -2
-3 -13 10 -14 15 -22 18 -25 10 -3 -8 -9 -3 -14 11 -8 21 -11 15 -16 -39 -4
-34 -7 -82 -7 -104 l0 -42 103 -61 c120 -72 308 -165 462 -227 76 -31 100 -44
78 -43 -18 1 -33 6 -33 10 0 5 -5 5 -10 2 -6 -4 -7 -11 -4 -17 4 -7 2 -8 -5
-4 -6 4 -9 11 -6 16 3 5 0 12 -6 16 -7 4 -9 3 -5 -4 3 -6 2 -13 -4 -17 -6 -4
-7 -12 -3 -18 3 -7 -4 -3 -17 8 l-23 20 6 -20 c7 -19 6 -19 -7 -2 -12 16 -14
16 -20 1 -5 -13 -9 -14 -21 -4 -8 7 -15 9 -15 4 0 -5 -5 -2 -10 6 -7 11 -10
11 -10 2 0 -7 -5 -10 -12 -6 -7 4 -8 3 -4 -5 4 -6 12 -9 17 -6 5 4 9 1 9 -5 0
-6 3 -9 8 -6 4 2 16 -3 27 -11 19 -15 19 -15 -5 -8 -49 14 -256 98 -315 127
-117 59 -146 79 -135 93 8 10 8 15 0 20 -7 4 -10 16 -7 26 3 11 1 17 -4 13 -5
-3 -9 7 -10 23 0 15 -3 22 -6 15 -11 -28 19 -211 49 -297 124 -364 317 -492
479 -318 104 112 234 307 255 384 9 33 20 55 24 49 4 -6 26 43 49 109 53 156
113 312 117 308 2 -2 -7 -37 -21 -78 -35 -102 -81 -285 -101 -404 -9 -55 -22
-115 -30 -133 -14 -34 -40 -43 -46 -14 -2 9 -12 -27 -21 -82 -10 -54 -16 -101
-13 -104 4 -3 6 2 6 11 0 9 5 19 12 23 6 4 8 3 4 -4 -3 -6 -3 -13 2 -16 4 -2
9 5 9 16 1 12 7 26 12 31 8 8 11 -16 11 -79 0 -49 7 -131 15 -183 27 -162 39
-154 50 29 7 122 33 339 46 390 7 30 8 28 3 -14 -8 -67 -5 -348 4 -416 4 -30
12 -55 17 -55 16 0 55 -31 48 -38 -3 -4 -2 -7 4 -7 6 0 10 -17 9 -41 -4 -63
-53 -89 -104 -53 -21 14 -23 14 -32 -11 -13 -35 -13 -45 4 -45 8 0 17 -7 20
-16 9 -22 8 -24 -9 -24 -8 0 -15 -7 -15 -15 0 -14 -12 -19 -32 -16 -5 0 -8 -9
-8 -22 0 -18 -14 -28 -69 -53 -49 -23 -73 -39 -83 -60 -9 -20 -21 -29 -38 -29
-31 0 -39 -30 -10 -38 11 -3 20 -12 20 -21 0 -9 5 -16 10 -16 6 0 10 6 10 13
0 22 56 69 172 142 123 78 166 122 174 181 3 21 15 57 27 79 20 37 22 54 22
228 0 156 2 179 10 134 6 -30 18 -65 27 -78 10 -13 15 -17 12 -8 -3 10 0 20 7
25 7 4 10 3 6 -3 -4 -6 0 -13 8 -17 8 -3 15 -11 15 -18 0 -9 -3 -8 -10 2 -6 9
-10 10 -10 3 0 -6 5 -15 10 -18 6 -4 7 -11 4 -17 -4 -7 -2 -8 4 -4 25 15 -11
202 -81 426 -26 83 -31 113 -26 145 5 22 8 72 8 112 l1 71 126 131 c69 72 130
131 134 131 4 0 10 -62 13 -137 7 -184 23 -222 20 -50 -1 123 -1 127 8 57 5
-41 18 -115 29 -163 29 -129 26 -166 -10 -134 -8 6 -3 -1 11 -18 14 -16 36
-55 49 -85 30 -67 98 -188 111 -196 15 -9 10 22 -11 77 -25 62 -82 261 -76
266 2 2 14 -27 26 -65 31 -94 102 -228 119 -224 24 5 59 -26 59 -53 0 -27 -35
-58 -59 -53 -7 2 -14 -8 -15 -24 -2 -19 2 -28 12 -28 8 0 14 -9 14 -20 0 -11
-5 -20 -11 -20 -6 0 -8 -7 -5 -16 4 -10 -6 -30 -29 -55 -19 -22 -35 -48 -35
-59 0 -11 -7 -23 -15 -26 -8 -4 -15 -13 -15 -21 0 -8 5 -11 10 -8 6 4 19 1 28
-6 9 -7 14 -10 10 -5 -11 13 18 74 63 134 60 79 83 136 70 173 -6 17 -8 42 -5
57 5 28 -15 94 -61 197 l-26 60 26 -30 26 -30 -20 40 c-10 22 -49 84 -85 138
-36 55 -66 104 -66 111 0 7 -12 46 -26 87 -14 41 -28 106 -31 145 l-6 70 56
53 c30 29 82 71 115 94 95 67 140 133 127 187 -4 14 -8 60 -9 103 -1 71 1 80
23 100 21 19 23 20 17 3 -5 -14 -3 -17 10 -12 13 5 15 2 11 -14 -3 -11 -1 -20
4 -20 4 0 6 -8 2 -17 -5 -15 -3 -16 8 -5 18 17 29 15 29 -4 0 -14 2 -14 16 -3
14 11 18 11 29 -4 6 -9 15 -14 18 -10 4 3 7 -2 7 -12 0 -17 1 -17 18 -2 25 23
35 21 29 -3 -6 -23 11 -27 19 -5 9 24 22 18 27 -12 4 -27 4 -27 12 -5 9 27 25
29 25 3 0 -13 -33 -44 -95 -91 -53 -40 -108 -88 -123 -107 -15 -20 -37 -45
-49 -56 -26 -23 -31 -84 -11 -116 9 -15 6 -30 -19 -82 -16 -36 -37 -71 -45
-80 -14 -13 -14 -17 3 -37 16 -21 38 -14 24 8 -3 5 6 19 19 31 19 16 30 43 43
101 15 66 21 78 36 74 21 -5 47 19 47 45 0 10 4 19 9 19 17 0 114 94 162 158
38 51 50 61 55 48 4 -10 -4 -36 -20 -64 -67 -116 -139 -281 -162 -368 -13 -52
-28 -103 -34 -115 -17 -31 13 -111 57 -149 l35 -31 1 -98 c2 -79 -2 -102 -17
-126 l-18 -28 23 6 c14 4 30 0 41 -9 9 -9 22 -13 27 -9 14 8 14 35 1 35 -5 0
-10 11 -10 25 0 14 5 25 10 25 14 0 12 53 -4 130 -10 44 -11 69 -4 78 8 8 6
12 -5 12 -21 0 -29 26 -11 40 11 10 17 10 29 0 12 -10 16 -8 25 15 12 32 13
65 1 83 -5 9 2 32 20 65 46 86 77 181 103 315 23 118 24 129 9 151 -11 18 -13
26 -4 29 6 2 9 7 6 12 -3 5 6 17 20 28 14 11 25 27 25 35 0 22 28 47 45 41 8
-4 15 -1 15 6 0 7 6 10 14 7 8 -3 17 -1 20 6 3 9 8 8 15 -3 9 -13 11 -13 11 3
0 20 16 23 23 5 3 -7 6 -2 6 11 1 21 3 22 18 10 15 -12 16 -12 10 5 -6 14 -4
17 8 12 9 -3 15 0 15 10 0 11 6 14 16 10 8 -3 13 -2 10 3 -13 21 28 19 62 -4
46 -30 261 -98 361 -115 41 -7 97 -10 125 -6 l51 6 29 -53 c17 -28 36 -58 43
-65 7 -7 13 -30 13 -51 0 -30 4 -37 20 -38 16 -1 19 3 15 20 -5 20 -12 97 -14
154 -1 13 -7 22 -13 20 -7 -1 -14 8 -16 21 -4 24 22 32 31 10 3 -7 6 -3 6 9 2
36 -10 53 -49 73 -28 14 -40 28 -45 50 -4 16 -13 30 -21 30 -17 0 -19 27 -1
33 9 3 7 10 -6 23 -24 26 -124 24 -237 -5 -105 -26 -130 -27 -130 -3 0 9 -17
28 -37 41 -35 22 -36 24 -18 37 12 9 14 14 5 14 -8 0 -4 8 10 20 16 14 21 27
18 44 -4 21 0 26 23 31 26 6 27 8 14 22 -18 17 -10 37 11 29 11 -4 12 -1 5 13
-12 22 -5 32 17 24 9 -4 13 -2 9 4 -4 6 -1 14 5 17 7 3 2 3 -12 0 -18 -4 -21
-2 -11 4 11 8 10 12 -5 21 -11 6 -14 11 -8 11 5 0 15 -5 22 -12 6 -6 14 -9 17
-6 3 3 -1 13 -10 22 -15 15 -15 16 2 16 15 1 14 3 -6 14 -13 7 -19 16 -14 19
11 7 72 -54 132 -136 54 -72 115 -117 156 -117 81 0 164 173 177 365 3 39 3
54 0 35 -5 -34 -5 -34 -13 -10 -8 22 -8 21 -4 -7 2 -18 0 -35 -5 -38 -6 -4 -7
1 -3 11 4 10 2 15 -3 12 -5 -4 -9 9 -8 28 1 19 0 34 -3 34 -6 0 -29 -23 -34
-35 -2 -5 -8 -9 -12 -7 -4 1 -18 -4 -30 -13 -12 -8 -28 -15 -37 -15 -8 1 -1 7
15 14 72 32 105 100 106 218 1 57 4 75 9 58 15 -47 10 2 -6 56 -15 52 -15 56
5 88 46 74 133 105 231 83 33 -7 34 -7 16 8 -15 11 -16 15 -5 16 34 1 -30 18
-74 18 -62 1 -108 -21 -151 -70 -34 -40 -53 -50 -42 -24 3 9 0 15 -9 15 -23 0
-19 94 6 147 11 23 44 64 72 90 29 25 47 43 40 40 -6 -4 -13 -2 -15 3 -2 6
-21 -3 -43 -19z m-241 -242 c-5 -9 1 -10 20 -5 31 8 66 -8 66 -29 0 -8 7 -15
15 -15 22 0 68 -79 69 -120 1 -26 -3 -35 -16 -35 -23 0 -35 -14 -20 -24 17
-11 -17 -46 -43 -45 -52 3 -57 4 -52 18 7 17 -17 28 -30 15 -6 -6 -16 -2 -28
11 -10 11 -15 20 -11 20 3 0 -1 11 -10 25 -9 14 -14 28 -10 32 3 3 1 12 -5 19
-6 7 -8 27 -4 46 3 18 7 38 7 45 1 7 5 10 9 7 10 -6 31 31 22 40 -3 3 1 6 11
6 10 0 14 -5 10 -11z m-654 -150 c0 -5 -7 -9 -15 -9 -9 0 -12 6 -9 15 6 15 24
11 24 -6z m-474 -56 c-7 -7 -26 7 -26 19 0 6 6 6 15 -2 9 -7 13 -15 11 -17z
m594 -18 c25 -10 50 -22 55 -28 7 -7 6 -8 -2 -3 -6 3 -22 1 -35 -4 l-23 -11
24 5 c16 3 21 2 14 -5 -6 -6 -19 -12 -29 -13 -10 -2 -20 -9 -22 -17 -3 -11 -1
-11 7 1 8 12 10 11 8 -7 -1 -20 -3 -21 -18 -7 -14 13 -18 13 -30 -3 -13 -17
-13 -17 6 -3 18 14 19 13 8 -1 -7 -9 -9 -19 -5 -24 4 -4 -3 -2 -15 6 -12 7
-19 18 -16 24 4 5 -2 3 -13 -6 -24 -19 -66 -19 -71 1 -4 13 -3 13 7 0 10 -13
11 -13 7 0 -4 17 -26 21 -45 6 -7 -5 -12 -5 -11 0 4 22 -2 35 -13 28 -6 -4 -8
-3 -4 4 3 6 2 13 -3 16 -5 4 -8 14 -6 24 1 9 -2 23 -7 29 -17 21 176 10 232
-12z m127 11 c-3 -8 -1 -17 6 -20 9 -3 9 -5 0 -5 -15 -1 -26 16 -18 29 9 15
18 12 12 -4z m-493 -61 c-10 -8 -14 -15 -7 -15 6 0 19 7 27 16 21 20 42 8 24
-14 -12 -13 -10 -14 9 -4 29 16 32 15 26 -7 -4 -15 -1 -19 14 -15 24 5 71 -65
51 -77 -9 -6 -8 -9 6 -9 20 0 20 0 0 -15 -18 -13 -18 -14 -1 -15 10 0 15 -5
12 -10 -4 -6 -11 -8 -16 -5 -5 3 -6 0 -4 -8 3 -7 1 -24 -4 -38 -9 -22 -12 -17
-11 16 1 8 -20 33 -60 71 -35 34 -50 42 -50 25 0 -4 -15 6 -34 24 -18 17 -58
41 -87 53 -42 18 -47 21 -21 17 18 -2 31 -1 28 4 -3 4 6 7 19 5 14 -1 27 2 31
7 3 5 19 9 37 9 29 0 30 -1 11 -15z m1088 -207 c-8 -8 -9 -4 -5 13 4 13 8 18
11 10 2 -7 -1 -18 -6 -23z m-1467 -17 c3 -5 2 -12 -3 -15 -5 -3 -9 1 -9 9 0
17 3 19 12 6z m1338 2 c-7 -2 -19 -2 -25 0 -7 3 -2 5 12 5 14 0 19 -2 13 -5z
m-1430 -390 c-7 -2 -19 -2 -25 0 -7 3 -2 5 12 5 14 0 19 -2 13 -5z m1431 -92
c5 -7 -155 -24 -162 -16 -4 4 94 22 130 24 15 0 29 -3 32 -8z m-296 -82 c84
-11 191 -10 241 2 38 8 47 7 63 -8 17 -17 10 -18 -190 -15 -113 2 -207 4 -209
5 -1 1 -4 15 -7 30 -2 14 -8 32 -12 39 -4 7 7 0 25 -16 24 -23 45 -32 89 -37z
m-968 -8 c0 -19 -12 -41 -20 -36 -10 6 -1 45 11 45 5 0 9 -4 9 -9z m1333 -43
c30 -12 36 -28 10 -28 -10 0 -53 7 -96 15 -43 8 -106 16 -140 17 l-62 1 45 7
c57 10 206 2 243 -12z m-2375 -33 c-3 -3 -9 2 -12 12 -6 14 -5 15 5 6 7 -7 10
-15 7 -18z m496 -146 c-9 -10 -21 -16 -25 -13 -5 3 -9 0 -9 -7 0 -7 -3 -9 -7
-6 -9 10 24 44 42 44 13 0 13 -3 -1 -18z m-757 -173 c14 -15 14 -18 2 -8 -9 6
-18 10 -21 7 -3 -3 -10 1 -16 8 -9 10 -8 14 3 14 8 0 23 -10 32 -21z m1438
-31 c-49 -43 -70 -55 -63 -35 3 9 98 79 108 79 3 0 -17 -20 -45 -44z m-660
-60 c-27 -22 -55 -32 -55 -20 0 4 70 44 80 45 3 0 -8 -11 -25 -25z m-56 -48
c8 -10 7 -18 -3 -32 -12 -17 -15 -17 -35 -3 -20 14 -21 17 -6 32 20 19 29 20
44 3z m916 -104 c-14 -58 -74 -173 -89 -173 -23 0 -20 8 24 75 22 33 45 74 51
92 13 40 24 44 14 6z m-1928 -125 c-3 -8 -6 -5 -6 6 -1 11 2 17 5 13 3 -3 4
-12 1 -19z m476 -123 c4 -8 3 -16 -1 -19 -4 -3 -9 4 -9 15 -2 23 3 25 10 4z
m514 -710 c0 -8 -4 -12 -9 -9 -4 3 -8 9 -8 15 0 5 4 9 8 9 5 0 9 -7 9 -15z"/>
<path d="M5715 3490 c-3 -5 1 -10 9 -10 9 0 16 5 16 10 0 6 -4 10 -9 10 -6 0
-13 -4 -16 -10z"/>
<path d="M5750 3370 c0 -5 5 -10 10 -10 6 0 10 5 10 10 0 6 -4 10 -10 10 -5 0
-10 -4 -10 -10z"/>
<path d="M5825 3331 c-6 -11 9 -23 19 -14 9 9 7 23 -3 23 -6 0 -12 -4 -16 -9z"/>
<path d="M5009 3342 c11 -8 11 -10 0 -15 -11 -4 -11 -6 1 -6 10 -1 11 -4 3 -9
-8 -5 -6 -14 8 -31 14 -17 19 -19 19 -7 0 9 -4 16 -10 16 -5 0 -8 12 -7 27 1
16 -4 28 -13 30 -12 4 -12 3 -1 -5z"/>
<path d="M5096 3242 c-3 -5 1 -9 9 -9 8 0 12 4 9 9 -3 4 -7 8 -9 8 -2 0 -6 -4
-9 -8z"/>
<path d="M4497 3729 c7 -9 10 -18 8 -21 -8 -8 265 -268 281 -268 36 0 11 30
-138 161 -90 79 -157 137 -151 128z m49 -51 l29 -33 -32 29 c-31 28 -38 36
-30 36 2 0 16 -15 33 -32z"/>
<path d="M4350 3726 c0 -2 8 -10 18 -17 15 -13 16 -12 3 4 -13 16 -21 21 -21
13z"/>
<path d="M4415 3670 c10 -11 20 -20 23 -20 3 0 -3 9 -13 20 -10 11 -20 20 -23
20 -3 0 3 -9 13 -20z"/>
<path d="M3269 3663 c-13 -16 -12 -17 4 -4 16 13 21 21 13 21 -2 0 -10 -8 -17
-17z"/>
<path d="M4465 3633 c40 -41 216 -193 223 -193 4 1 -15 21 -43 46 -64 57 -206
174 -180 147z"/>
<path d="M4354 3555 c1 -9 8 -21 16 -28 10 -10 11 -9 5 2 -6 11 -4 13 8 8 24
-9 21 -2 -7 16 -21 14 -24 14 -22 2z"/>
<path d="M4150 3456 c0 -3 14 -12 30 -21 17 -9 30 -13 30 -11 0 3 -13 12 -30
21 -16 9 -30 13 -30 11z"/>
<path d="M3353 3433 c9 -2 25 -2 35 0 9 3 1 5 -18 5 -19 0 -27 -2 -17 -5z"/>
<path d="M6506 3421 c-4 -6 -12 -8 -18 -5 -5 3 2 -12 17 -35 31 -47 45 -52 45
-17 0 30 -34 74 -44 57z"/>
<path d="M3628 3413 c6 -2 18 -2 25 0 6 3 1 5 -13 5 -14 0 -19 -2 -12 -5z"/>
<path d="M3688 3403 c6 -2 18 -2 25 0 6 3 1 5 -13 5 -14 0 -19 -2 -12 -5z"/>
<path d="M5982 3300 c0 -14 2 -19 5 -12 2 6 2 18 0 25 -3 6 -5 1 -5 -13z"/>
<path d="M5992 3215 c0 -16 2 -22 5 -12 2 9 2 23 0 30 -3 6 -5 -1 -5 -18z"/>
<path d="M3363 3213 c9 -2 23 -2 30 0 6 3 -1 5 -18 5 -16 0 -22 -2 -12 -5z"/>
<path d="M3298 3203 c7 -3 16 -2 19 1 4 3 -2 6 -13 5 -11 0 -14 -3 -6 -6z"/>
<path d="M4377 3079 c-3 -12 -3 -28 1 -37 9 -22 32 -27 32 -7 0 8 0 17 0 20 0
3 -3 5 -7 4 -5 -1 -7 -5 -5 -11 1 -5 -2 -7 -8 -3 -5 3 -7 17 -4 31 3 13 4 24
1 24 -2 0 -7 -9 -10 -21z"/>
<path d="M4320 2670 c0 -5 0 -13 1 -17 0 -4 -8 -11 -18 -15 -17 -7 -17 -8 1
-5 16 2 36 47 21 47 -3 0 -5 -4 -5 -10z"/>
<path d="M4041 2324 c-7 -8 -11 -17 -9 -20 3 -2 13 5 23 16 10 11 14 20 9 20
-5 -1 -15 -8 -23 -16z"/>
<path d="M3931 2244 c0 -11 3 -14 6 -6 3 7 2 16 -1 19 -3 4 -6 -2 -5 -13z"/>
<path d="M3580 1901 c0 -7 -5 -9 -12 -5 -7 5 -8 3 -3 -5 5 -9 10 -10 18 -2 6
6 8 14 4 18 -4 3 -7 1 -7 -6z"/>
<path d="M3436 1652 c-2 -4 -1 -14 3 -21 6 -9 11 -10 15 -2 4 6 2 11 -4 11 -6
0 -8 5 -5 10 3 6 4 10 1 10 -3 0 -7 -4 -10 -8z"/>
<path d="M3361 1592 c1 -4 1 -14 0 -22 -1 -13 -2 -13 -11 0 -6 9 -10 10 -10 3
0 -22 19 -24 30 -3 6 12 16 18 23 14 7 -4 8 -3 4 1 -9 11 -37 16 -36 7z"/>
<path d="M2880 1462 c0 -6 5 -14 10 -17 8 -5 8 -11 0 -20 -8 -10 -7 -15 7 -19
10 -3 22 -5 27 -5 5 0 13 -5 18 -13 8 -10 9 -10 5 2 -2 8 -10 14 -16 13 -6 -2
-11 2 -11 8 0 6 -9 22 -20 36 -11 14 -20 21 -20 15z"/>
</g>
</svg>
