<?xml version="1.0" encoding="UTF-8"?>
<svg xmlns="http://www.w3.org/2000/svg" xmlns:xlink="http://www.w3.org/1999/xlink" width="88pt" height="50pt" viewBox="0 0 88 50" version="1.1">
<g id="surface1">
<path style=" stroke:none;fill-rule:nonzero;fill:rgb(0%,0%,0%);fill-opacity:1;" d="M 63.988281 11.488281 C 64.101562 11.558594 64.078125 11.589844 63.890625 11.621094 C 63.691406 11.640625 63.730469 11.679688 64.128906 11.839844 C 64.398438 11.941406 64.640625 11.988281 64.679688 11.949219 C 64.78125 11.859375 64.230469 11.398438 64.019531 11.398438 C 63.878906 11.398438 63.878906 11.421875 63.988281 11.488281 Z M 63.988281 11.488281 "/>
<path style=" stroke:none;fill-rule:nonzero;fill:rgb(0%,0%,0%);fill-opacity:1;" d="M 59.949219 11.988281 C 59.46875 12.339844 59.078125 12.988281 59 13.550781 C 58.96875 13.808594 58.898438 13.949219 58.800781 13.949219 C 58.699219 13.949219 58.660156 13.871094 58.671875 13.71875 C 58.691406 13.558594 58.660156 13.511719 58.570312 13.570312 C 58.378906 13.691406 58.078125 13.710938 58.148438 13.601562 C 58.179688 13.539062 58.148438 13.429688 58.070312 13.351562 C 57.941406 13.21875 57.910156 13.21875 57.859375 13.351562 C 57.828125 13.429688 57.75 13.5 57.691406 13.5 C 57.621094 13.5 57.601562 13.46875 57.628906 13.429688 C 57.671875 13.398438 57.621094 13.308594 57.519531 13.238281 C 57.390625 13.148438 57.328125 13.148438 57.28125 13.230469 C 57.21875 13.320312 57.199219 13.308594 57.199219 13.21875 C 57.199219 13.148438 57.160156 13.121094 57.101562 13.148438 C 57.050781 13.179688 57 13.171875 57 13.109375 C 57 13.058594 56.910156 13.019531 56.800781 13.03125 C 56.691406 13.039062 56.601562 13.078125 56.601562 13.121094 C 56.601562 13.160156 56.558594 13.199219 56.5 13.199219 C 56.449219 13.199219 56.429688 13.121094 56.460938 13.019531 C 56.511719 12.859375 56.511719 12.859375 56.398438 13.03125 C 56.339844 13.121094 56.25 13.179688 56.191406 13.148438 C 56.140625 13.109375 56.101562 13.140625 56.101562 13.210938 C 56.101562 13.28125 56.03125 13.25 55.949219 13.140625 C 55.859375 13.03125 55.808594 13 55.800781 13.078125 C 55.800781 13.289062 55.570312 13.46875 55.378906 13.421875 C 55.28125 13.398438 55.199219 13.328125 55.199219 13.28125 C 55.199219 13.230469 55.128906 13.261719 55.039062 13.351562 C 54.921875 13.46875 54.910156 13.539062 55 13.640625 C 55.089844 13.75 55.078125 13.78125 54.960938 13.761719 C 54.871094 13.75 54.78125 13.710938 54.738281 13.679688 C 54.671875 13.601562 54.300781 13.910156 54.300781 14.050781 C 54.300781 14.109375 54.191406 14.238281 54.050781 14.339844 C 53.910156 14.441406 53.800781 14.589844 53.800781 14.660156 C 53.800781 14.738281 53.738281 14.800781 53.660156 14.800781 C 53.558594 14.800781 53.53125 14.878906 53.558594 15.050781 C 53.578125 15.199219 53.558594 15.300781 53.488281 15.300781 C 53.429688 15.300781 53.398438 15.371094 53.441406 15.449219 C 53.46875 15.53125 53.441406 15.601562 53.371094 15.609375 C 53.300781 15.609375 53.339844 15.648438 53.449219 15.699219 C 53.621094 15.769531 53.621094 15.789062 53.480469 15.789062 C 53.289062 15.800781 53.21875 16 53.398438 16 C 53.460938 16 53.488281 16.050781 53.480469 16.121094 C 53.441406 16.269531 53 16.699219 52.890625 16.699219 C 52.769531 16.699219 52.78125 16.429688 52.898438 16.351562 C 53.019531 16.28125 52.941406 16.101562 52.789062 16.101562 C 52.738281 16.101562 52.699219 16.171875 52.699219 16.25 C 52.699219 16.328125 52.648438 16.398438 52.589844 16.398438 C 52.53125 16.398438 52.5 16.328125 52.539062 16.25 C 52.609375 16.050781 52.5 16.058594 52.328125 16.269531 C 52.199219 16.441406 52.191406 16.429688 52.25 16.21875 C 52.300781 16.058594 52.269531 16 52.160156 16 C 52.070312 16 52 16.039062 52 16.101562 C 52 16.148438 51.941406 16.171875 51.859375 16.140625 C 51.78125 16.109375 51.738281 16.019531 51.761719 15.949219 C 51.800781 15.859375 51.75 15.820312 51.621094 15.828125 C 51.5 15.828125 51.441406 15.890625 51.46875 15.96875 C 51.5 16.039062 51.449219 16.101562 51.359375 16.101562 C 51.269531 16.101562 51.199219 16.019531 51.199219 15.910156 C 51.199219 15.648438 50.941406 15.570312 50.671875 15.75 C 50.441406 15.898438 50.121094 15.808594 50.238281 15.621094 C 50.28125 15.558594 50.21875 15.539062 50.089844 15.570312 C 49.96875 15.609375 49.851562 15.710938 49.828125 15.808594 C 49.789062 15.949219 49.738281 15.96875 49.601562 15.898438 C 49.511719 15.851562 49.398438 15.839844 49.359375 15.871094 C 49.328125 15.898438 49.300781 15.820312 49.289062 15.691406 C 49.289062 15.558594 49.261719 15.511719 49.230469 15.589844 C 49.160156 15.769531 48.859375 16.058594 48.691406 16.121094 C 48.609375 16.148438 48.5 16.078125 48.429688 15.960938 L 48.308594 15.75 L 48.300781 15.96875 C 48.300781 16.25 48.21875 16.261719 48.039062 16.019531 C 47.921875 15.871094 47.910156 15.878906 47.898438 16.171875 C 47.898438 16.550781 47.851562 16.570312 47.558594 16.320312 L 47.359375 16.148438 L 47.539062 16.449219 C 47.730469 16.75 47.730469 16.75 47.53125 16.570312 C 47.300781 16.371094 47.160156 16.339844 47.261719 16.519531 C 47.320312 16.621094 47.300781 16.621094 47.191406 16.519531 C 47.121094 16.460938 47.019531 16.398438 46.96875 16.398438 C 46.929688 16.398438 46.921875 16.460938 46.960938 16.519531 C 47.019531 16.621094 47 16.621094 46.878906 16.519531 C 46.738281 16.410156 46.699219 16.421875 46.609375 16.570312 C 46.519531 16.71875 46.511719 16.730469 46.5 16.589844 C 46.5 16.5 46.109375 16.140625 45.628906 15.78125 C 44.320312 14.828125 44.03125 14.628906 44.191406 14.828125 C 44.320312 15 44.230469 15.070312 44.039062 14.921875 C 43.988281 14.878906 44.078125 14.96875 44.25 15.121094 C 44.410156 15.269531 44.601562 15.390625 44.648438 15.390625 C 44.710938 15.390625 44.660156 15.328125 44.558594 15.25 C 44.449219 15.171875 44.410156 15.101562 44.46875 15.101562 C 44.519531 15.101562 44.648438 15.199219 44.761719 15.320312 C 44.859375 15.449219 44.910156 15.519531 44.859375 15.480469 C 44.78125 15.410156 44.398438 15.800781 44.398438 15.949219 C 44.398438 15.988281 44.480469 15.921875 44.589844 15.789062 C 44.800781 15.53125 44.71875 15.488281 45.601562 16.210938 C 45.851562 16.421875 46.140625 16.601562 46.25 16.628906 C 46.398438 16.660156 46.378906 16.679688 46.171875 16.691406 C 46.011719 16.691406 45.910156 16.738281 45.949219 16.800781 C 45.980469 16.851562 45.960938 16.898438 45.898438 16.898438 C 45.75 16.898438 43.46875 16.328125 42.898438 16.148438 C 42.648438 16.070312 42.050781 15.910156 41.550781 15.789062 C 41.058594 15.671875 40.609375 15.53125 40.558594 15.480469 C 40.5 15.441406 40.378906 15.398438 40.28125 15.398438 C 40.039062 15.398438 36.820312 14.328125 35.621094 13.859375 C 34.359375 13.351562 34.261719 13.449219 35.488281 13.980469 C 36.269531 14.328125 36.5 14.46875 36.539062 14.660156 C 36.601562 14.878906 37.519531 15.601562 37.738281 15.601562 C 37.800781 15.601562 37.640625 15.46875 37.390625 15.320312 C 36.921875 15.011719 36.539062 14.628906 36.621094 14.550781 C 36.648438 14.519531 37.269531 14.71875 38.011719 14.980469 C 39.460938 15.511719 41.089844 16.019531 44.621094 17.039062 C 47.019531 17.738281 47.671875 17.980469 47.878906 18.230469 C 48.109375 18.5 47.871094 18.488281 46.949219 18.191406 C 45.230469 17.628906 37.988281 15.96875 37.421875 16.011719 C 37.320312 16.019531 37.621094 16.101562 38.058594 16.191406 C 38.769531 16.339844 38.921875 16.410156 39.199219 16.730469 C 39.488281 17.058594 40.449219 17.699219 40.660156 17.699219 C 40.710938 17.699219 40.53125 17.570312 40.25 17.410156 C 39.738281 17.109375 39.039062 16.519531 39.121094 16.449219 C 39.238281 16.320312 47.101562 18.300781 47.519531 18.570312 C 47.601562 18.609375 47.078125 19.101562 46.949219 19.101562 C 46.910156 19.101562 47 19 47.148438 18.878906 C 47.410156 18.679688 47.410156 18.660156 47.238281 18.589844 C 46.96875 18.480469 46.878906 18.480469 46.941406 18.589844 C 47.011719 18.691406 46.808594 18.679688 46.628906 18.570312 C 46.570312 18.53125 46.488281 18.539062 46.449219 18.601562 C 46.410156 18.660156 46.339844 18.671875 46.28125 18.640625 C 46.210938 18.601562 46.199219 18.621094 46.238281 18.691406 C 46.28125 18.75 46.359375 18.78125 46.410156 18.75 C 46.460938 18.710938 46.5 18.738281 46.5 18.800781 C 46.5 18.859375 46.550781 18.878906 46.601562 18.851562 C 46.660156 18.820312 46.699219 18.839844 46.699219 18.898438 C 46.699219 18.96875 46.628906 18.988281 46.539062 18.960938 C 46.011719 18.761719 43.421875 18.289062 40.300781 17.839844 C 38.328125 17.558594 35.679688 17.480469 34.648438 17.679688 C 34.269531 17.75 34.5 17.761719 35.601562 17.730469 C 36.398438 17.710938 37.25 17.730469 37.5 17.769531 L 37.949219 17.859375 L 37.480469 18.140625 C 37.210938 18.289062 37 18.441406 37 18.460938 C 37 18.53125 37.980469 18.011719 38.050781 17.910156 C 38.078125 17.851562 38.230469 17.828125 38.378906 17.851562 C 38.53125 17.878906 39.328125 18.011719 40.160156 18.148438 C 42.410156 18.519531 42.308594 18.488281 42.199219 18.710938 C 42.140625 18.808594 42.101562 18.988281 42.109375 19.121094 C 42.109375 19.300781 42.140625 19.269531 42.230469 19 C 42.308594 18.78125 42.421875 18.640625 42.550781 18.621094 C 42.890625 18.578125 45.761719 19.261719 45.511719 19.328125 C 45.359375 19.371094 45.308594 19.429688 45.359375 19.511719 C 45.398438 19.589844 45.390625 19.609375 45.308594 19.558594 C 45.25 19.519531 45.230469 19.441406 45.261719 19.378906 C 45.300781 19.320312 45.230469 19.328125 45.101562 19.398438 C 44.949219 19.480469 44.898438 19.480469 44.941406 19.410156 C 45 19.320312 44.878906 19.28125 44.640625 19.308594 C 44.601562 19.308594 44.53125 19.261719 44.488281 19.179688 C 44.421875 19.070312 44.398438 19.070312 44.398438 19.191406 C 44.398438 19.300781 44.371094 19.300781 44.230469 19.191406 C 44.070312 19.070312 44.058594 19.070312 44.171875 19.210938 C 44.238281 19.289062 44.269531 19.460938 44.230469 19.578125 C 44.199219 19.710938 44.21875 19.800781 44.289062 19.800781 C 44.359375 19.800781 44.378906 19.75 44.351562 19.699219 C 44.320312 19.640625 44.339844 19.601562 44.390625 19.601562 C 44.449219 19.601562 44.5 19.648438 44.5 19.699219 C 44.5 19.769531 44.570312 19.769531 44.710938 19.691406 C 44.878906 19.601562 44.910156 19.609375 44.878906 19.71875 C 44.820312 19.898438 42.261719 19.949219 40.101562 19.800781 C 39.191406 19.738281 37.78125 19.671875 36.949219 19.648438 L 35.449219 19.621094 L 36.75 19.699219 C 37.46875 19.738281 38.121094 19.78125 38.199219 19.789062 C 38.28125 19.800781 38.121094 19.929688 37.839844 20.089844 C 37.359375 20.371094 36.96875 20.910156 37.140625 21.070312 C 37.171875 21.101562 37.199219 21.058594 37.199219 20.96875 C 37.199219 20.699219 37.691406 20.21875 38.148438 20.039062 C 38.550781 19.890625 38.761719 19.878906 40.121094 19.988281 C 40.960938 20.050781 42.109375 20.128906 42.679688 20.160156 C 43.460938 20.210938 43.699219 20.261719 43.660156 20.359375 C 43.628906 20.429688 43.660156 20.511719 43.730469 20.53125 C 43.820312 20.558594 43.820312 20.609375 43.71875 20.730469 C 43.621094 20.839844 43.980469 20.761719 44.910156 20.441406 C 45.628906 20.199219 46.25 20.019531 46.28125 20.050781 C 46.308594 20.070312 46.269531 20.121094 46.191406 20.140625 C 46.109375 20.171875 45.449219 20.378906 44.71875 20.621094 C 43.730469 20.941406 43.429688 21.070312 43.53125 21.148438 C 43.738281 21.308594 43.699219 21.601562 43.460938 21.609375 C 43.25 21.609375 43.25 21.621094 43.449219 21.699219 C 43.589844 21.761719 43.601562 21.789062 43.5 21.800781 C 43.410156 21.808594 43.441406 21.851562 43.578125 21.910156 C 43.851562 22.011719 43.828125 22.230469 43.539062 22.28125 C 43.140625 22.359375 43.171875 22.5 43.578125 22.5 C 44.078125 22.5 44.109375 22.609375 43.671875 22.839844 C 43.410156 22.980469 43.351562 23.078125 43.351562 23.328125 C 43.351562 23.558594 43.289062 23.679688 43.128906 23.761719 C 43 23.820312 42.929688 23.910156 42.980469 23.960938 C 43.019531 24 42.96875 23.980469 42.878906 23.910156 C 42.730469 23.800781 42.710938 23.808594 42.75 24 C 42.78125 24.171875 42.761719 24.191406 42.660156 24.109375 C 42.53125 24 42.300781 24.140625 42.300781 24.351562 C 42.300781 24.398438 42.351562 24.378906 42.398438 24.300781 C 42.449219 24.21875 42.5 24.199219 42.5 24.261719 C 42.5 24.460938 42.230469 24.628906 42.140625 24.488281 C 42.089844 24.410156 42.109375 24.398438 42.199219 24.449219 C 42.289062 24.511719 42.308594 24.488281 42.261719 24.410156 C 42.199219 24.320312 42.128906 24.328125 41.988281 24.460938 C 41.75 24.671875 41.738281 24.769531 41.980469 24.589844 C 42.128906 24.460938 42.140625 24.46875 42.011719 24.628906 C 41.910156 24.761719 41.839844 24.78125 41.738281 24.691406 C 41.558594 24.539062 41.558594 24.710938 41.75 24.960938 C 41.828125 25.058594 41.898438 25.191406 41.898438 25.238281 C 41.898438 25.289062 41.550781 24.871094 41.128906 24.289062 C 40.488281 23.441406 40.300781 23.25 40.078125 23.238281 C 39.929688 23.238281 39.828125 23.269531 39.851562 23.308594 C 39.878906 23.351562 39.828125 23.371094 39.738281 23.359375 C 39.660156 23.351562 39.539062 23.269531 39.488281 23.191406 C 39.441406 23.109375 39.398438 23.089844 39.398438 23.148438 C 39.398438 23.199219 39.261719 23.03125 39.089844 22.769531 C 38.910156 22.511719 38.75 22.308594 38.730469 22.339844 C 38.671875 22.390625 39.5 23.71875 40.578125 25.300781 C 41.191406 26.191406 41.339844 26.460938 41.101562 26.25 C 40.921875 26.078125 40.800781 26.011719 40.839844 26.070312 C 40.960938 26.28125 41 26.609375 40.890625 26.550781 C 40.839844 26.511719 40.820312 26.449219 40.851562 26.398438 C 40.878906 26.351562 40.859375 26.289062 40.808594 26.261719 C 40.761719 26.21875 40.730469 26.308594 40.738281 26.449219 C 40.78125 26.738281 40.480469 27.039062 40.160156 27.050781 C 39.878906 27.050781 39.609375 27.269531 39.488281 27.578125 C 39.410156 27.78125 39.371094 27.800781 39.25 27.699219 C 39.089844 27.570312 38.898438 27.640625 38.898438 27.828125 C 38.898438 27.898438 38.941406 27.890625 39 27.800781 C 39.050781 27.71875 39.109375 27.679688 39.148438 27.710938 C 39.179688 27.738281 39.121094 27.851562 39.011719 27.941406 C 38.871094 28.070312 38.800781 28.078125 38.738281 27.988281 C 38.691406 27.910156 38.710938 27.890625 38.808594 27.949219 C 38.890625 28 38.910156 27.988281 38.871094 27.949219 C 38.828125 27.898438 38.730469 27.851562 38.648438 27.839844 C 38.539062 27.820312 38.53125 27.859375 38.601562 28 C 38.671875 28.140625 38.660156 28.179688 38.550781 28.160156 C 38.46875 28.148438 38.371094 28.101562 38.328125 28.050781 C 38.289062 28.011719 38.308594 28 38.390625 28.050781 C 38.488281 28.101562 38.511719 28.089844 38.460938 28.011719 C 38.421875 27.949219 38.328125 27.929688 38.269531 27.96875 C 38.148438 28.050781 38.101562 28.058594 37.898438 28.089844 C 37.851562 28.089844 37.800781 28.148438 37.800781 28.210938 C 37.800781 28.269531 37.851562 28.28125 37.929688 28.230469 C 38.089844 28.128906 38.339844 28.089844 38.25 28.179688 C 38.210938 28.21875 38.140625 28.261719 38.089844 28.261719 C 38.039062 28.269531 37.96875 28.28125 37.929688 28.289062 C 37.898438 28.289062 37.96875 28.421875 38.109375 28.570312 C 38.789062 29.328125 36.78125 27.449219 35.859375 26.460938 C 35.269531 25.820312 34.730469 25.320312 34.671875 25.328125 C 34.601562 25.339844 34.558594 25.289062 34.578125 25.21875 C 34.589844 25.160156 34.539062 25.109375 34.480469 25.121094 C 34.410156 25.140625 34.359375 25.089844 34.378906 25.019531 C 34.390625 24.941406 34.359375 24.910156 34.289062 24.949219 C 34.21875 25 34.261719 25.101562 34.410156 25.261719 C 34.53125 25.390625 34.671875 25.46875 34.730469 25.429688 C 34.789062 25.390625 34.800781 25.421875 34.75 25.5 C 34.691406 25.589844 34.710938 25.609375 34.808594 25.550781 C 34.890625 25.5 34.910156 25.511719 34.871094 25.550781 C 34.75 25.691406 34.5 25.699219 34.53125 25.570312 C 34.539062 25.5 34.488281 25.460938 34.421875 25.480469 C 34.359375 25.488281 34.308594 25.441406 34.320312 25.378906 C 34.339844 25.308594 34.300781 25.261719 34.25 25.269531 C 34.191406 25.28125 34.140625 25.179688 34.140625 25.039062 C 34.140625 24.910156 34.179688 24.800781 34.238281 24.800781 C 34.289062 24.800781 34.300781 24.769531 34.269531 24.738281 C 34.230469 24.699219 34.140625 24.730469 34.058594 24.789062 C 33.941406 24.890625 33.921875 24.878906 33.96875 24.710938 C 34.011719 24.550781 33.96875 24.5 33.839844 24.488281 C 33.730469 24.488281 33.710938 24.460938 33.769531 24.429688 C 33.871094 24.398438 33.871094 24.328125 33.78125 24.171875 C 33.679688 23.960938 33.679688 23.960938 33.851562 24.101562 C 34.050781 24.261719 34.058594 24.289062 33.621094 23.429688 C 33.441406 23.070312 33.429688 23.078125 32.710938 23.730469 L 32.28125 24.121094 L 32.628906 24.628906 C 33.328125 25.691406 34.289062 26.800781 35.898438 28.398438 C 36.808594 29.300781 37.46875 29.988281 37.378906 29.910156 C 37.238281 29.800781 37.171875 29.800781 37.050781 29.898438 C 36.96875 29.96875 36.921875 30.058594 36.949219 30.089844 C 36.96875 30.128906 36.921875 30.171875 36.839844 30.171875 C 36.730469 30.171875 36.738281 30.121094 36.898438 29.949219 C 37.050781 29.789062 37.070312 29.730469 36.960938 29.730469 C 36.878906 29.730469 36.820312 29.78125 36.828125 29.839844 C 36.839844 29.898438 36.800781 29.941406 36.75 29.929688 C 36.691406 29.921875 36.628906 30.03125 36.621094 30.160156 C 36.609375 30.328125 36.640625 30.390625 36.71875 30.339844 C 36.789062 30.300781 36.800781 30.308594 36.761719 30.390625 C 36.71875 30.449219 36.640625 30.480469 36.589844 30.449219 C 36.511719 30.390625 36.460938 30.53125 36.488281 30.730469 C 36.488281 30.769531 36.441406 30.789062 36.378906 30.78125 C 36.308594 30.761719 36.261719 30.808594 36.28125 30.878906 C 36.289062 30.960938 36.261719 30.988281 36.199219 30.949219 C 36.128906 30.910156 36.171875 30.789062 36.300781 30.628906 C 36.410156 30.488281 36.5 30.320312 36.5 30.261719 C 36.488281 30.199219 36.441406 30.25 36.371094 30.378906 C 36.300781 30.5 36.199219 30.570312 36.160156 30.53125 C 36.121094 30.488281 36.101562 30.519531 36.121094 30.601562 C 36.128906 30.679688 36.101562 30.738281 36.039062 30.730469 C 35.96875 30.71875 35.941406 30.789062 35.96875 30.890625 C 36 30.988281 35.96875 31.109375 35.898438 31.148438 C 35.820312 31.199219 35.839844 31.28125 35.96875 31.429688 C 36.230469 31.738281 34.621094 30.609375 33.371094 29.609375 C 32.78125 29.140625 32.25 28.761719 32.191406 28.78125 C 32.140625 28.789062 32.101562 28.738281 32.101562 28.679688 C 32.101562 28.589844 32.070312 28.601562 32 28.699219 C 31.859375 28.929688 31.539062 28.910156 31.53125 28.660156 C 31.511719 28.46875 31.519531 28.46875 31.609375 28.621094 C 31.671875 28.71875 31.75 28.800781 31.808594 28.800781 C 31.859375 28.800781 31.800781 28.679688 31.660156 28.53125 C 31.519531 28.378906 31.429688 28.230469 31.460938 28.179688 C 31.488281 28.128906 31.460938 28.109375 31.378906 28.121094 C 31.308594 28.140625 31.261719 28.101562 31.269531 28.039062 C 31.28125 27.980469 31.21875 27.929688 31.148438 27.929688 C 31.050781 27.929688 31.03125 27.96875 31.101562 28.050781 C 31.148438 28.121094 31.160156 28.210938 31.121094 28.25 C 31.078125 28.300781 31.109375 28.300781 31.191406 28.25 C 31.289062 28.191406 31.308594 28.210938 31.25 28.300781 C 31.191406 28.390625 31.210938 28.410156 31.300781 28.351562 C 31.390625 28.289062 31.410156 28.308594 31.351562 28.398438 C 31.300781 28.488281 31.308594 28.511719 31.378906 28.460938 C 31.460938 28.410156 31.480469 28.449219 31.441406 28.550781 C 31.378906 28.691406 31.359375 28.691406 31.25 28.53125 C 31.179688 28.429688 31.121094 28.300781 31.101562 28.25 C 31.089844 28.191406 31.011719 28.070312 30.929688 27.96875 C 30.839844 27.878906 30.800781 27.800781 30.839844 27.800781 C 30.878906 27.800781 30.859375 27.710938 30.800781 27.609375 C 30.730469 27.46875 30.730469 27.390625 30.820312 27.339844 C 30.890625 27.289062 30.898438 27.308594 30.851562 27.398438 C 30.800781 27.480469 30.808594 27.511719 30.871094 27.46875 C 30.929688 27.429688 30.960938 27.511719 30.941406 27.660156 C 30.921875 27.871094 30.941406 27.890625 31.058594 27.789062 C 31.21875 27.660156 31.25 27.558594 31.089844 27.648438 C 31.03125 27.691406 31 27.660156 31.019531 27.578125 C 31.050781 27.449219 30.511719 26.609375 30.390625 26.601562 C 30.359375 26.601562 30.089844 27.101562 29.800781 27.710938 L 29.261719 28.828125 L 29.929688 29.460938 C 30.941406 30.421875 32.449219 31.589844 33.921875 32.558594 C 35.339844 33.5 35.628906 33.710938 35.148438 33.480469 C 34.839844 33.320312 34.601562 33.339844 34.601562 33.519531 C 34.601562 33.589844 34.648438 33.578125 34.738281 33.511719 C 34.839844 33.429688 34.898438 33.421875 34.949219 33.5 C 34.988281 33.558594 34.960938 33.589844 34.878906 33.578125 C 34.808594 33.558594 34.761719 33.609375 34.769531 33.671875 C 34.789062 33.738281 34.738281 33.789062 34.671875 33.769531 C 34.609375 33.761719 34.558594 33.820312 34.578125 33.898438 C 34.609375 34.011719 34.570312 34 34.421875 33.859375 C 34.21875 33.691406 34.210938 33.691406 34.121094 33.871094 C 34.070312 33.96875 34.039062 34.128906 34.050781 34.230469 C 34.078125 34.359375 34.050781 34.378906 33.960938 34.308594 C 33.878906 34.238281 33.800781 34.269531 33.710938 34.421875 C 33.601562 34.601562 33.601562 34.621094 33.71875 34.570312 C 33.800781 34.539062 33.871094 34.578125 33.871094 34.648438 C 33.871094 34.820312 32.460938 34.121094 30.910156 33.179688 C 30.148438 32.71875 29.800781 32.550781 29.839844 32.671875 C 29.878906 32.789062 29.828125 32.761719 29.699219 32.601562 C 29.589844 32.460938 29.5 32.390625 29.5 32.441406 C 29.5 32.488281 29.421875 32.460938 29.328125 32.390625 C 29.21875 32.289062 29.191406 32.289062 29.238281 32.371094 C 29.28125 32.449219 29.261719 32.5 29.199219 32.5 C 29.140625 32.5 29.121094 32.558594 29.148438 32.621094 C 29.191406 32.691406 29.128906 32.648438 29.019531 32.519531 C 28.878906 32.371094 28.800781 32.339844 28.769531 32.421875 C 28.738281 32.5 28.679688 32.449219 28.628906 32.308594 C 28.550781 32.101562 28.519531 32.160156 28.46875 32.699219 C 28.429688 33.039062 28.398438 33.519531 28.398438 33.738281 L 28.398438 34.160156 L 29.429688 34.769531 C 30.628906 35.488281 32.511719 36.421875 34.050781 37.039062 C 34.808594 37.351562 35.050781 37.480469 34.828125 37.46875 C 34.648438 37.460938 34.5 37.410156 34.5 37.371094 C 34.5 37.320312 34.449219 37.320312 34.398438 37.351562 C 34.339844 37.390625 34.328125 37.460938 34.359375 37.519531 C 34.398438 37.589844 34.378906 37.601562 34.308594 37.558594 C 34.25 37.519531 34.21875 37.449219 34.25 37.398438 C 34.28125 37.351562 34.25 37.28125 34.191406 37.238281 C 34.121094 37.199219 34.101562 37.210938 34.140625 37.28125 C 34.171875 37.339844 34.160156 37.410156 34.101562 37.449219 C 34.039062 37.488281 34.03125 37.570312 34.070312 37.628906 C 34.101562 37.699219 34.03125 37.660156 33.898438 37.550781 L 33.671875 37.351562 L 33.730469 37.550781 C 33.800781 37.738281 33.789062 37.738281 33.660156 37.570312 C 33.539062 37.410156 33.519531 37.410156 33.460938 37.558594 C 33.410156 37.691406 33.371094 37.699219 33.25 37.601562 C 33.171875 37.53125 33.101562 37.511719 33.101562 37.558594 C 33.101562 37.609375 33.050781 37.578125 33 37.5 C 32.929688 37.390625 32.898438 37.390625 32.898438 37.480469 C 32.898438 37.550781 32.851562 37.578125 32.78125 37.539062 C 32.710938 37.5 32.699219 37.511719 32.738281 37.589844 C 32.78125 37.648438 32.859375 37.679688 32.910156 37.648438 C 32.960938 37.609375 33 37.640625 33 37.699219 C 33 37.761719 33.03125 37.789062 33.078125 37.761719 C 33.121094 37.738281 33.238281 37.789062 33.351562 37.871094 C 33.539062 38.019531 33.539062 38.019531 33.300781 37.949219 C 32.808594 37.808594 30.738281 36.96875 30.148438 36.679688 C 28.980469 36.089844 28.691406 35.890625 28.800781 35.75 C 28.878906 35.648438 28.878906 35.601562 28.800781 35.550781 C 28.730469 35.511719 28.699219 35.390625 28.730469 35.289062 C 28.761719 35.179688 28.738281 35.121094 28.691406 35.160156 C 28.640625 35.191406 28.601562 35.089844 28.589844 34.929688 C 28.589844 34.78125 28.558594 34.710938 28.53125 34.78125 C 28.421875 35.058594 28.71875 36.890625 29.019531 37.75 C 30.261719 41.390625 32.191406 42.671875 33.808594 40.929688 C 34.851562 39.808594 36.148438 37.859375 36.359375 37.089844 C 36.449219 36.761719 36.558594 36.539062 36.601562 36.601562 C 36.640625 36.660156 36.859375 36.171875 37.089844 35.511719 C 37.621094 33.949219 38.21875 32.390625 38.261719 32.429688 C 38.28125 32.449219 38.191406 32.800781 38.050781 33.210938 C 37.699219 34.230469 37.238281 36.058594 37.039062 37.25 C 36.949219 37.800781 36.820312 38.398438 36.738281 38.578125 C 36.601562 38.921875 36.339844 39.011719 36.28125 38.71875 C 36.261719 38.628906 36.160156 38.988281 36.070312 39.539062 C 35.96875 40.078125 35.910156 40.550781 35.941406 40.578125 C 35.980469 40.609375 36 40.558594 36 40.46875 C 36 40.378906 36.050781 40.28125 36.121094 40.238281 C 36.179688 40.199219 36.199219 40.210938 36.160156 40.28125 C 36.128906 40.339844 36.128906 40.410156 36.179688 40.441406 C 36.21875 40.460938 36.269531 40.390625 36.269531 40.28125 C 36.28125 40.160156 36.339844 40.019531 36.390625 39.96875 C 36.46875 39.890625 36.5 40.128906 36.5 40.761719 C 36.5 41.25 36.570312 42.070312 36.648438 42.589844 C 36.921875 44.210938 37.039062 44.128906 37.148438 42.300781 C 37.21875 41.078125 37.480469 38.910156 37.609375 38.398438 C 37.679688 38.101562 37.691406 38.121094 37.640625 38.539062 C 37.558594 39.210938 37.589844 42.019531 37.679688 42.699219 C 37.71875 43 37.800781 43.25 37.851562 43.25 C 38.011719 43.25 38.398438 43.558594 38.328125 43.628906 C 38.300781 43.671875 38.308594 43.699219 38.371094 43.699219 C 38.429688 43.699219 38.46875 43.871094 38.460938 44.109375 C 38.421875 44.738281 37.929688 45 37.421875 44.640625 C 37.210938 44.5 37.191406 44.5 37.101562 44.75 C 36.96875 45.101562 36.96875 45.199219 37.140625 45.199219 C 37.21875 45.199219 37.308594 45.269531 37.339844 45.359375 C 37.429688 45.578125 37.421875 45.601562 37.25 45.601562 C 37.171875 45.601562 37.101562 45.671875 37.101562 45.75 C 37.101562 45.890625 36.980469 45.941406 36.78125 45.910156 C 36.730469 45.910156 36.699219 46 36.699219 46.128906 C 36.699219 46.308594 36.558594 46.410156 36.011719 46.660156 C 35.519531 46.890625 35.28125 47.050781 35.179688 47.261719 C 35.089844 47.460938 34.96875 47.550781 34.800781 47.550781 C 34.488281 47.550781 34.410156 47.851562 34.699219 47.929688 C 34.808594 47.960938 34.898438 48.050781 34.898438 48.140625 C 34.898438 48.230469 34.949219 48.300781 35 48.300781 C 35.058594 48.300781 35.101562 48.238281 35.101562 48.171875 C 35.101562 47.949219 35.660156 47.480469 36.820312 46.75 C 38.050781 45.96875 38.480469 45.53125 38.558594 44.941406 C 38.589844 44.730469 38.710938 44.371094 38.828125 44.148438 C 39.03125 43.78125 39.050781 43.609375 39.050781 41.871094 C 39.050781 40.308594 39.070312 40.078125 39.148438 40.53125 C 39.210938 40.828125 39.328125 41.179688 39.421875 41.308594 C 39.519531 41.441406 39.570312 41.480469 39.539062 41.390625 C 39.511719 41.289062 39.539062 41.191406 39.609375 41.140625 C 39.679688 41.101562 39.710938 41.109375 39.671875 41.171875 C 39.628906 41.230469 39.671875 41.300781 39.75 41.339844 C 39.828125 41.371094 39.898438 41.449219 39.898438 41.519531 C 39.898438 41.609375 39.871094 41.601562 39.800781 41.5 C 39.738281 41.410156 39.699219 41.398438 39.699219 41.46875 C 39.699219 41.53125 39.75 41.621094 39.800781 41.648438 C 39.859375 41.691406 39.871094 41.761719 39.839844 41.820312 C 39.800781 41.890625 39.820312 41.898438 39.878906 41.859375 C 40.128906 41.710938 39.769531 39.839844 39.070312 37.601562 C 38.808594 36.769531 38.761719 36.46875 38.808594 36.148438 C 38.859375 35.929688 38.890625 35.429688 38.890625 35.03125 L 38.898438 34.320312 L 40.160156 33.011719 C 40.851562 32.289062 41.460938 31.699219 41.5 31.699219 C 41.539062 31.699219 41.601562 32.320312 41.628906 33.070312 C 41.699219 34.910156 41.859375 35.289062 41.828125 33.570312 C 41.820312 32.339844 41.820312 32.300781 41.910156 33 C 41.960938 33.410156 42.089844 34.148438 42.199219 34.628906 C 42.488281 35.921875 42.460938 36.289062 42.101562 35.96875 C 42.019531 35.910156 42.070312 35.980469 42.210938 36.148438 C 42.351562 36.308594 42.570312 36.699219 42.699219 37 C 43 37.671875 43.679688 38.878906 43.808594 38.960938 C 43.960938 39.050781 43.910156 38.738281 43.699219 38.191406 C 43.449219 37.570312 42.878906 35.578125 42.941406 35.53125 C 42.960938 35.511719 43.078125 35.800781 43.199219 36.179688 C 43.511719 37.121094 44.21875 38.460938 44.390625 38.421875 C 44.628906 38.371094 44.980469 38.679688 44.980469 38.949219 C 44.980469 39.21875 44.628906 39.53125 44.390625 39.480469 C 44.320312 39.460938 44.25 39.558594 44.238281 39.71875 C 44.21875 39.910156 44.261719 40 44.359375 40 C 44.441406 40 44.5 40.089844 44.5 40.199219 C 44.5 40.308594 44.449219 40.398438 44.390625 40.398438 C 44.328125 40.398438 44.308594 40.46875 44.339844 40.558594 C 44.378906 40.660156 44.28125 40.859375 44.050781 41.109375 C 43.859375 41.328125 43.699219 41.589844 43.699219 41.699219 C 43.699219 41.808594 43.628906 41.929688 43.550781 41.960938 C 43.46875 42 43.398438 42.089844 43.398438 42.171875 C 43.398438 42.25 43.449219 42.28125 43.5 42.25 C 43.558594 42.210938 43.691406 42.238281 43.78125 42.308594 C 43.871094 42.378906 43.921875 42.410156 43.878906 42.359375 C 43.769531 42.230469 44.058594 41.621094 44.511719 41.019531 C 45.109375 40.230469 45.339844 39.660156 45.210938 39.289062 C 45.148438 39.121094 45.128906 38.871094 45.160156 38.71875 C 45.210938 38.441406 45.011719 37.78125 44.550781 36.75 L 44.289062 36.148438 L 44.550781 36.449219 L 44.808594 36.75 L 44.609375 36.351562 C 44.511719 36.128906 44.121094 35.511719 43.761719 34.96875 C 43.398438 34.421875 43.101562 33.929688 43.101562 33.859375 C 43.101562 33.789062 42.980469 33.398438 42.839844 32.988281 C 42.699219 32.578125 42.558594 31.929688 42.53125 31.539062 L 42.46875 30.839844 L 43.03125 30.308594 C 43.328125 30.019531 43.851562 29.601562 44.179688 29.371094 C 45.128906 28.699219 45.578125 28.039062 45.449219 27.5 C 45.410156 27.359375 45.371094 26.898438 45.359375 26.46875 C 45.351562 25.761719 45.371094 25.671875 45.589844 25.46875 C 45.800781 25.28125 45.820312 25.269531 45.761719 25.441406 C 45.710938 25.578125 45.730469 25.609375 45.859375 25.558594 C 45.988281 25.511719 46.011719 25.539062 45.96875 25.699219 C 45.941406 25.808594 45.960938 25.898438 46.011719 25.898438 C 46.050781 25.898438 46.070312 25.980469 46.03125 26.070312 C 45.980469 26.21875 46 26.230469 46.109375 26.121094 C 46.289062 25.949219 46.398438 25.96875 46.398438 26.160156 C 46.398438 26.300781 46.421875 26.300781 46.558594 26.191406 C 46.699219 26.078125 46.738281 26.078125 46.851562 26.230469 C 46.910156 26.320312 47 26.371094 47.03125 26.328125 C 47.070312 26.300781 47.101562 26.351562 47.101562 26.449219 C 47.101562 26.621094 47.109375 26.621094 47.28125 26.46875 C 47.53125 26.238281 47.628906 26.261719 47.570312 26.5 C 47.511719 26.730469 47.679688 26.769531 47.761719 26.550781 C 47.851562 26.308594 47.980469 26.371094 48.03125 26.671875 C 48.070312 26.941406 48.070312 26.941406 48.148438 26.71875 C 48.238281 26.449219 48.398438 26.429688 48.398438 26.691406 C 48.398438 26.820312 48.070312 27.128906 47.449219 27.601562 C 46.921875 28 46.371094 28.480469 46.21875 28.671875 C 46.070312 28.871094 45.851562 29.121094 45.730469 29.230469 C 45.46875 29.460938 45.421875 30.070312 45.621094 30.390625 C 45.710938 30.539062 45.679688 30.691406 45.429688 31.210938 C 45.269531 31.570312 45.058594 31.921875 44.980469 32.011719 C 44.839844 32.140625 44.839844 32.179688 45.011719 32.378906 C 45.171875 32.589844 45.390625 32.519531 45.25 32.300781 C 45.21875 32.25 45.308594 32.109375 45.441406 31.988281 C 45.628906 31.828125 45.738281 31.558594 45.871094 30.980469 C 46.019531 30.320312 46.078125 30.199219 46.230469 30.238281 C 46.441406 30.289062 46.699219 30.050781 46.699219 29.789062 C 46.699219 29.691406 46.738281 29.601562 46.789062 29.601562 C 46.960938 29.601562 47.929688 28.660156 48.410156 28.019531 C 48.789062 27.511719 48.910156 27.410156 48.960938 27.539062 C 49 27.640625 48.921875 27.898438 48.761719 28.179688 C 48.089844 29.339844 47.371094 30.988281 47.140625 31.859375 C 47.011719 32.378906 46.859375 32.890625 46.800781 33.011719 C 46.628906 33.320312 46.929688 34.121094 47.371094 34.5 L 47.71875 34.808594 L 47.730469 35.789062 C 47.75 36.578125 47.710938 36.808594 47.558594 37.050781 L 47.378906 37.328125 L 47.609375 37.269531 C 47.75 37.230469 47.910156 37.269531 48.019531 37.359375 C 48.109375 37.449219 48.238281 37.488281 48.289062 37.449219 C 48.429688 37.371094 48.429688 37.101562 48.300781 37.101562 C 48.25 37.101562 48.199219 36.988281 48.199219 36.851562 C 48.199219 36.710938 48.25 36.601562 48.300781 36.601562 C 48.441406 36.601562 48.421875 36.070312 48.261719 35.300781 C 48.160156 34.859375 48.148438 34.609375 48.21875 34.519531 C 48.300781 34.441406 48.28125 34.398438 48.171875 34.398438 C 47.960938 34.398438 47.878906 34.140625 48.058594 34 C 48.171875 33.898438 48.230469 33.898438 48.351562 34 C 48.46875 34.101562 48.511719 34.078125 48.601562 33.851562 C 48.71875 33.53125 48.730469 33.199219 48.609375 33.019531 C 48.558594 32.929688 48.628906 32.699219 48.808594 32.371094 C 49.269531 31.511719 49.578125 30.558594 49.839844 29.21875 C 50.070312 28.039062 50.078125 27.929688 49.929688 27.710938 C 49.820312 27.53125 49.800781 27.449219 49.890625 27.421875 C 49.949219 27.398438 49.980469 27.351562 49.949219 27.300781 C 49.921875 27.25 50.011719 27.128906 50.148438 27.019531 C 50.289062 26.910156 50.398438 26.75 50.398438 26.671875 C 50.398438 26.449219 50.679688 26.199219 50.851562 26.261719 C 50.929688 26.300781 51 26.269531 51 26.199219 C 51 26.128906 51.058594 26.101562 51.140625 26.128906 C 51.21875 26.160156 51.308594 26.140625 51.339844 26.070312 C 51.371094 25.980469 51.421875 25.988281 51.488281 26.101562 C 51.578125 26.230469 51.601562 26.230469 51.601562 26.070312 C 51.601562 25.871094 51.761719 25.839844 51.828125 26.019531 C 51.859375 26.089844 51.890625 26.039062 51.890625 25.910156 C 51.898438 25.699219 51.921875 25.691406 52.070312 25.808594 C 52.21875 25.929688 52.230469 25.929688 52.171875 25.761719 C 52.109375 25.621094 52.128906 25.589844 52.25 25.640625 C 52.339844 25.671875 52.398438 25.640625 52.398438 25.539062 C 52.398438 25.429688 52.460938 25.398438 52.558594 25.441406 C 52.640625 25.46875 52.691406 25.460938 52.660156 25.410156 C 52.53125 25.199219 52.941406 25.21875 53.28125 25.449219 C 53.738281 25.75 55.890625 26.429688 56.890625 26.601562 C 57.300781 26.671875 57.859375 26.699219 58.140625 26.660156 L 58.648438 26.601562 L 58.941406 27.128906 C 59.109375 27.410156 59.300781 27.710938 59.371094 27.78125 C 59.441406 27.851562 59.5 28.078125 59.5 28.289062 C 59.5 28.589844 59.539062 28.660156 59.699219 28.671875 C 59.859375 28.679688 59.890625 28.640625 59.851562 28.46875 C 59.800781 28.269531 59.730469 27.5 59.710938 26.929688 C 59.699219 26.800781 59.640625 26.710938 59.578125 26.730469 C 59.511719 26.738281 59.441406 26.648438 59.421875 26.519531 C 59.378906 26.28125 59.640625 26.199219 59.730469 26.421875 C 59.761719 26.488281 59.789062 26.449219 59.789062 26.328125 C 59.808594 25.96875 59.691406 25.800781 59.300781 25.601562 C 59.019531 25.460938 58.898438 25.320312 58.851562 25.101562 C 58.808594 24.941406 58.71875 24.800781 58.640625 24.800781 C 58.46875 24.800781 58.449219 24.53125 58.628906 24.46875 C 58.71875 24.441406 58.699219 24.371094 58.570312 24.238281 C 58.328125 23.980469 57.328125 24 56.199219 24.289062 C 55.148438 24.550781 54.898438 24.558594 54.898438 24.320312 C 54.898438 24.230469 54.730469 24.039062 54.53125 23.910156 C 54.179688 23.691406 54.171875 23.671875 54.351562 23.539062 C 54.46875 23.449219 54.488281 23.398438 54.398438 23.398438 C 54.320312 23.398438 54.359375 23.320312 54.5 23.199219 C 54.660156 23.058594 54.710938 22.929688 54.679688 22.761719 C 54.640625 22.550781 54.679688 22.5 54.910156 22.449219 C 55.171875 22.390625 55.179688 22.371094 55.050781 22.230469 C 54.871094 22.058594 54.949219 21.859375 55.160156 21.941406 C 55.269531 21.980469 55.28125 21.949219 55.210938 21.808594 C 55.089844 21.589844 55.160156 21.488281 55.378906 21.570312 C 55.46875 21.609375 55.511719 21.589844 55.46875 21.53125 C 55.429688 21.46875 55.460938 21.390625 55.519531 21.359375 C 55.589844 21.328125 55.539062 21.328125 55.398438 21.359375 C 55.21875 21.398438 55.191406 21.378906 55.289062 21.320312 C 55.398438 21.238281 55.390625 21.199219 55.238281 21.109375 C 55.128906 21.050781 55.101562 21 55.160156 21 C 55.210938 21 55.308594 21.050781 55.378906 21.121094 C 55.441406 21.179688 55.519531 21.210938 55.550781 21.179688 C 55.578125 21.148438 55.539062 21.050781 55.449219 20.960938 C 55.300781 20.808594 55.300781 20.800781 55.46875 20.800781 C 55.621094 20.789062 55.609375 20.769531 55.410156 20.660156 C 55.28125 20.589844 55.21875 20.5 55.269531 20.46875 C 55.378906 20.398438 55.988281 21.011719 56.589844 21.828125 C 57.128906 22.550781 57.738281 23 58.148438 23 C 58.960938 23 59.789062 21.269531 59.921875 19.351562 C 59.949219 18.960938 59.949219 18.808594 59.921875 19 C 59.871094 19.339844 59.871094 19.339844 59.789062 19.101562 C 59.710938 18.878906 59.710938 18.890625 59.75 19.171875 C 59.769531 19.351562 59.75 19.519531 59.699219 19.550781 C 59.640625 19.589844 59.628906 19.539062 59.671875 19.441406 C 59.710938 19.339844 59.691406 19.289062 59.640625 19.320312 C 59.589844 19.359375 59.550781 19.230469 59.558594 19.039062 C 59.570312 18.851562 59.558594 18.699219 59.53125 18.699219 C 59.46875 18.699219 59.238281 18.929688 59.191406 19.050781 C 59.171875 19.101562 59.109375 19.140625 59.070312 19.121094 C 59.03125 19.109375 58.890625 19.160156 58.769531 19.25 C 58.648438 19.328125 58.488281 19.398438 58.398438 19.398438 C 58.320312 19.390625 58.390625 19.328125 58.550781 19.261719 C 59.269531 18.941406 59.601562 18.261719 59.609375 17.078125 C 59.621094 16.511719 59.648438 16.328125 59.699219 16.5 C 59.851562 16.96875 59.800781 16.480469 59.640625 15.941406 C 59.488281 15.421875 59.488281 15.378906 59.691406 15.058594 C 60.148438 14.320312 61.019531 14.011719 62 14.230469 C 62.328125 14.300781 62.339844 14.300781 62.160156 14.148438 C 62.011719 14.039062 62 14 62.109375 13.988281 C 62.449219 13.980469 61.808594 13.808594 61.371094 13.808594 C 60.75 13.800781 60.289062 14.019531 59.859375 14.511719 C 59.519531 14.910156 59.328125 15.011719 59.441406 14.75 C 59.46875 14.660156 59.441406 14.601562 59.351562 14.601562 C 59.121094 14.601562 59.160156 13.660156 59.410156 13.128906 C 59.519531 12.898438 59.851562 12.488281 60.128906 12.230469 C 60.421875 11.980469 60.601562 11.800781 60.53125 11.828125 C 60.46875 11.871094 60.398438 11.851562 60.378906 11.800781 C 60.359375 11.738281 60.171875 11.828125 59.949219 11.988281 Z M 57.539062 14.410156 C 57.488281 14.5 57.550781 14.511719 57.738281 14.460938 C 58.050781 14.378906 58.398438 14.539062 58.398438 14.75 C 58.398438 14.828125 58.46875 14.898438 58.550781 14.898438 C 58.769531 14.898438 59.230469 15.691406 59.238281 16.101562 C 59.25 16.359375 59.210938 16.449219 59.078125 16.449219 C 58.851562 16.449219 58.730469 16.589844 58.878906 16.691406 C 59.050781 16.800781 58.710938 17.148438 58.449219 17.140625 C 57.929688 17.109375 57.878906 17.101562 57.929688 16.960938 C 58 16.789062 57.761719 16.679688 57.628906 16.808594 C 57.570312 16.871094 57.46875 16.828125 57.351562 16.699219 C 57.25 16.589844 57.199219 16.5 57.238281 16.5 C 57.269531 16.5 57.230469 16.390625 57.140625 16.25 C 57.050781 16.109375 57 15.96875 57.039062 15.929688 C 57.070312 15.898438 57.050781 15.808594 56.988281 15.738281 C 56.929688 15.671875 56.910156 15.46875 56.949219 15.28125 C 56.980469 15.101562 57.019531 14.898438 57.019531 14.828125 C 57.03125 14.761719 57.070312 14.730469 57.109375 14.761719 C 57.210938 14.820312 57.421875 14.449219 57.328125 14.359375 C 57.300781 14.328125 57.339844 14.300781 57.441406 14.300781 C 57.539062 14.300781 57.578125 14.351562 57.539062 14.410156 Z M 51 15.910156 C 51 15.960938 50.929688 16 50.851562 16 C 50.761719 16 50.730469 15.941406 50.761719 15.851562 C 50.820312 15.699219 51 15.738281 51 15.910156 Z M 46.261719 16.46875 C 46.191406 16.539062 46 16.398438 46 16.28125 C 46 16.21875 46.058594 16.21875 46.148438 16.300781 C 46.238281 16.371094 46.28125 16.449219 46.261719 16.46875 Z M 52.199219 16.648438 C 52.449219 16.75 52.699219 16.871094 52.75 16.929688 C 52.820312 17 52.808594 17.011719 52.730469 16.960938 C 52.671875 16.929688 52.511719 16.949219 52.378906 17 L 52.148438 17.109375 L 52.390625 17.058594 C 52.550781 17.03125 52.601562 17.039062 52.53125 17.109375 C 52.46875 17.171875 52.339844 17.230469 52.238281 17.238281 C 52.140625 17.261719 52.039062 17.328125 52.019531 17.410156 C 51.988281 17.519531 52.011719 17.519531 52.089844 17.398438 C 52.171875 17.28125 52.191406 17.289062 52.171875 17.46875 C 52.160156 17.671875 52.140625 17.679688 51.988281 17.539062 C 51.851562 17.410156 51.808594 17.410156 51.691406 17.570312 C 51.558594 17.738281 51.558594 17.738281 51.75 17.601562 C 51.929688 17.460938 51.941406 17.46875 51.828125 17.609375 C 51.761719 17.699219 51.738281 17.800781 51.78125 17.851562 C 51.820312 17.890625 51.75 17.871094 51.628906 17.789062 C 51.511719 17.71875 51.441406 17.609375 51.46875 17.550781 C 51.511719 17.5 51.449219 17.519531 51.339844 17.609375 C 51.101562 17.800781 50.679688 17.800781 50.628906 17.601562 C 50.589844 17.46875 50.601562 17.46875 50.699219 17.601562 C 50.800781 17.730469 50.808594 17.730469 50.769531 17.601562 C 50.730469 17.429688 50.511719 17.390625 50.320312 17.539062 C 50.25 17.589844 50.199219 17.589844 50.210938 17.539062 C 50.25 17.320312 50.191406 17.191406 50.078125 17.261719 C 50.019531 17.300781 50 17.289062 50.039062 17.21875 C 50.070312 17.160156 50.058594 17.089844 50.011719 17.058594 C 49.960938 17.019531 49.929688 16.921875 49.949219 16.820312 C 49.960938 16.730469 49.929688 16.589844 49.878906 16.53125 C 49.710938 16.320312 51.640625 16.429688 52.199219 16.648438 Z M 53.46875 16.539062 C 53.441406 16.621094 53.460938 16.710938 53.53125 16.738281 C 53.621094 16.769531 53.621094 16.789062 53.53125 16.789062 C 53.378906 16.800781 53.269531 16.628906 53.351562 16.5 C 53.441406 16.351562 53.53125 16.378906 53.46875 16.539062 Z M 48.539062 17.148438 C 48.441406 17.230469 48.398438 17.300781 48.46875 17.300781 C 48.53125 17.300781 48.660156 17.230469 48.738281 17.140625 C 48.949219 16.941406 49.160156 17.058594 48.980469 17.28125 C 48.859375 17.410156 48.878906 17.421875 49.070312 17.320312 C 49.359375 17.160156 49.390625 17.171875 49.328125 17.390625 C 49.289062 17.539062 49.320312 17.578125 49.46875 17.539062 C 49.710938 17.488281 50.179688 18.191406 49.980469 18.308594 C 49.890625 18.371094 49.898438 18.398438 50.039062 18.398438 C 50.238281 18.398438 50.238281 18.398438 50.039062 18.550781 C 49.859375 18.679688 49.859375 18.691406 50.03125 18.699219 C 50.128906 18.699219 50.179688 18.75 50.148438 18.800781 C 50.109375 18.859375 50.039062 18.878906 49.988281 18.851562 C 49.941406 18.820312 49.929688 18.851562 49.949219 18.929688 C 49.980469 19 49.960938 19.171875 49.910156 19.308594 C 49.820312 19.53125 49.789062 19.480469 49.800781 19.148438 C 49.808594 19.070312 49.601562 18.820312 49.199219 18.441406 C 48.851562 18.101562 48.699219 18.019531 48.699219 18.191406 C 48.699219 18.230469 48.550781 18.128906 48.359375 17.949219 C 48.179688 17.78125 47.78125 17.539062 47.488281 17.421875 C 47.070312 17.238281 47.019531 17.210938 47.28125 17.25 C 47.460938 17.269531 47.589844 17.261719 47.558594 17.210938 C 47.53125 17.171875 47.621094 17.140625 47.75 17.160156 C 47.890625 17.171875 48.019531 17.140625 48.058594 17.089844 C 48.089844 17.039062 48.25 17 48.429688 17 C 48.71875 17 48.730469 17.011719 48.539062 17.148438 Z M 59.421875 19.21875 C 59.339844 19.300781 59.328125 19.261719 59.371094 19.089844 C 59.410156 18.960938 59.449219 18.910156 59.480469 18.988281 C 59.5 19.058594 59.46875 19.171875 59.421875 19.21875 Z M 44.75 19.390625 C 44.78125 19.441406 44.769531 19.511719 44.71875 19.539062 C 44.671875 19.570312 44.628906 19.53125 44.628906 19.449219 C 44.628906 19.28125 44.660156 19.261719 44.75 19.390625 Z M 58.128906 19.371094 C 58.058594 19.390625 57.941406 19.390625 57.878906 19.371094 C 57.808594 19.339844 57.859375 19.320312 58 19.320312 C 58.140625 19.320312 58.191406 19.339844 58.128906 19.371094 Z M 43.828125 23.269531 C 43.761719 23.289062 43.640625 23.289062 43.578125 23.269531 C 43.511719 23.238281 43.558594 23.21875 43.699219 23.21875 C 43.839844 23.21875 43.890625 23.238281 43.828125 23.269531 Z M 58.140625 24.191406 C 58.191406 24.261719 56.589844 24.429688 56.519531 24.351562 C 56.480469 24.308594 57.460938 24.128906 57.820312 24.109375 C 57.96875 24.109375 58.109375 24.140625 58.140625 24.191406 Z M 55.179688 25.011719 C 56.019531 25.121094 57.089844 25.109375 57.589844 24.988281 C 57.96875 24.910156 58.058594 24.921875 58.21875 25.070312 C 58.390625 25.238281 58.320312 25.25 56.320312 25.21875 C 55.191406 25.199219 54.25 25.179688 54.230469 25.171875 C 54.21875 25.160156 54.191406 25.019531 54.160156 24.871094 C 54.140625 24.730469 54.078125 24.550781 54.039062 24.480469 C 54 24.410156 54.109375 24.480469 54.289062 24.640625 C 54.53125 24.871094 54.738281 24.960938 55.179688 25.011719 Z M 45.5 25.089844 C 45.5 25.28125 45.378906 25.5 45.300781 25.449219 C 45.199219 25.390625 45.289062 25 45.410156 25 C 45.460938 25 45.5 25.039062 45.5 25.089844 Z M 58.828125 25.519531 C 59.128906 25.640625 59.191406 25.800781 58.929688 25.800781 C 58.828125 25.800781 58.398438 25.730469 57.96875 25.648438 C 57.539062 25.570312 56.910156 25.488281 56.570312 25.480469 L 55.949219 25.46875 L 56.398438 25.398438 C 56.96875 25.300781 58.460938 25.378906 58.828125 25.519531 Z M 35.078125 25.851562 C 35.050781 25.878906 34.988281 25.828125 34.960938 25.730469 C 34.898438 25.589844 34.910156 25.578125 35.011719 25.671875 C 35.078125 25.738281 35.109375 25.820312 35.078125 25.851562 Z M 40.039062 27.308594 C 39.949219 27.410156 39.828125 27.46875 39.789062 27.441406 C 39.738281 27.410156 39.699219 27.441406 39.699219 27.511719 C 39.699219 27.578125 39.671875 27.601562 39.628906 27.570312 C 39.539062 27.46875 39.871094 27.128906 40.050781 27.128906 C 40.179688 27.128906 40.179688 27.160156 40.039062 27.308594 Z M 32.46875 29.039062 C 32.609375 29.191406 32.609375 29.21875 32.488281 29.121094 C 32.398438 29.058594 32.308594 29.019531 32.28125 29.050781 C 32.25 29.078125 32.179688 29.039062 32.121094 28.96875 C 32.03125 28.871094 32.039062 28.828125 32.148438 28.828125 C 32.230469 28.828125 32.378906 28.929688 32.46875 29.039062 Z M 46.851562 29.351562 C 46.359375 29.78125 46.148438 29.898438 46.21875 29.699219 C 46.25 29.609375 47.199219 28.910156 47.300781 28.910156 C 47.328125 28.910156 47.128906 29.109375 46.851562 29.351562 Z M 40.25 29.949219 C 39.980469 30.171875 39.699219 30.269531 39.699219 30.148438 C 39.699219 30.109375 40.398438 29.710938 40.5 29.699219 C 40.53125 29.699219 40.421875 29.808594 40.25 29.949219 Z M 39.691406 30.429688 C 39.769531 30.53125 39.761719 30.609375 39.660156 30.75 C 39.539062 30.921875 39.511719 30.921875 39.308594 30.78125 C 39.109375 30.640625 39.101562 30.609375 39.25 30.460938 C 39.449219 30.269531 39.539062 30.261719 39.691406 30.429688 Z M 48.851562 31.46875 C 48.710938 32.050781 48.109375 33.199219 47.960938 33.199219 C 47.730469 33.199219 47.761719 33.121094 48.199219 32.449219 C 48.421875 32.121094 48.648438 31.710938 48.710938 31.53125 C 48.839844 31.128906 48.949219 31.089844 48.851562 31.46875 Z M 29.570312 32.71875 C 29.539062 32.800781 29.511719 32.769531 29.511719 32.660156 C 29.5 32.550781 29.53125 32.488281 29.558594 32.53125 C 29.589844 32.558594 29.601562 32.648438 29.570312 32.71875 Z M 34.328125 33.949219 C 34.371094 34.03125 34.359375 34.109375 34.320312 34.140625 C 34.28125 34.171875 34.230469 34.101562 34.230469 33.988281 C 34.210938 33.761719 34.261719 33.738281 34.328125 33.949219 Z M 39.46875 41.050781 C 39.46875 41.128906 39.429688 41.171875 39.378906 41.140625 C 39.339844 41.109375 39.300781 41.050781 39.300781 40.988281 C 39.300781 40.941406 39.339844 40.898438 39.378906 40.898438 C 39.429688 40.898438 39.46875 40.96875 39.46875 41.050781 Z M 39.46875 41.050781 "/>
<path style=" stroke:none;fill-rule:nonzero;fill:rgb(0%,0%,0%);fill-opacity:1;" d="M 57.148438 15.101562 C 57.121094 15.148438 57.160156 15.199219 57.238281 15.199219 C 57.328125 15.199219 57.398438 15.148438 57.398438 15.101562 C 57.398438 15.039062 57.359375 15 57.308594 15 C 57.25 15 57.179688 15.039062 57.148438 15.101562 Z M 57.148438 15.101562 "/>
<path style=" stroke:none;fill-rule:nonzero;fill:rgb(0%,0%,0%);fill-opacity:1;" d="M 57.5 16.300781 C 57.5 16.351562 57.550781 16.398438 57.601562 16.398438 C 57.660156 16.398438 57.699219 16.351562 57.699219 16.300781 C 57.699219 16.238281 57.660156 16.199219 57.601562 16.199219 C 57.550781 16.199219 57.5 16.238281 57.5 16.300781 Z M 57.5 16.300781 "/>
<path style=" stroke:none;fill-rule:nonzero;fill:rgb(0%,0%,0%);fill-opacity:1;" d="M 58.25 16.691406 C 58.191406 16.800781 58.339844 16.921875 58.441406 16.828125 C 58.53125 16.738281 58.511719 16.601562 58.410156 16.601562 C 58.351562 16.601562 58.289062 16.640625 58.25 16.691406 Z M 58.25 16.691406 "/>
<path style=" stroke:none;fill-rule:nonzero;fill:rgb(0%,0%,0%);fill-opacity:1;" d="M 50.089844 16.578125 C 50.199219 16.660156 50.199219 16.679688 50.089844 16.730469 C 49.980469 16.769531 49.980469 16.789062 50.101562 16.789062 C 50.199219 16.800781 50.210938 16.828125 50.128906 16.878906 C 50.050781 16.929688 50.070312 17.019531 50.210938 17.191406 C 50.351562 17.359375 50.398438 17.378906 50.398438 17.261719 C 50.398438 17.171875 50.359375 17.101562 50.300781 17.101562 C 50.25 17.101562 50.21875 16.980469 50.230469 16.828125 C 50.238281 16.671875 50.191406 16.550781 50.101562 16.53125 C 49.980469 16.488281 49.980469 16.5 50.089844 16.578125 Z M 50.089844 16.578125 "/>
<path style=" stroke:none;fill-rule:nonzero;fill:rgb(0%,0%,0%);fill-opacity:1;" d="M 50.960938 17.578125 C 50.929688 17.628906 50.96875 17.671875 51.050781 17.671875 C 51.128906 17.671875 51.171875 17.628906 51.140625 17.578125 C 51.109375 17.539062 51.070312 17.5 51.050781 17.5 C 51.03125 17.5 50.988281 17.539062 50.960938 17.578125 Z M 50.960938 17.578125 "/>
<path style=" stroke:none;fill-rule:nonzero;fill:rgb(0%,0%,0%);fill-opacity:1;" d="M 44.96875 12.710938 C 45.039062 12.800781 45.070312 12.890625 45.050781 12.921875 C 44.96875 13 47.699219 15.601562 47.859375 15.601562 C 48.21875 15.601562 47.96875 15.300781 46.480469 13.988281 C 45.578125 13.199219 44.910156 12.621094 44.96875 12.710938 Z M 45.460938 13.21875 L 45.75 13.550781 L 45.429688 13.261719 C 45.121094 12.980469 45.050781 12.898438 45.128906 12.898438 C 45.148438 12.898438 45.289062 13.050781 45.460938 13.21875 Z M 45.460938 13.21875 "/>
<path style=" stroke:none;fill-rule:nonzero;fill:rgb(0%,0%,0%);fill-opacity:1;" d="M 43.5 12.738281 C 43.5 12.761719 43.578125 12.839844 43.679688 12.910156 C 43.828125 13.039062 43.839844 13.03125 43.710938 12.871094 C 43.578125 12.710938 43.5 12.660156 43.5 12.738281 Z M 43.5 12.738281 "/>
<path style=" stroke:none;fill-rule:nonzero;fill:rgb(0%,0%,0%);fill-opacity:1;" d="M 44.148438 13.300781 C 44.25 13.410156 44.351562 13.5 44.378906 13.5 C 44.410156 13.5 44.351562 13.410156 44.25 13.300781 C 44.148438 13.191406 44.050781 13.101562 44.019531 13.101562 C 43.988281 13.101562 44.050781 13.191406 44.148438 13.300781 Z M 44.148438 13.300781 "/>
<path style=" stroke:none;fill-rule:nonzero;fill:rgb(0%,0%,0%);fill-opacity:1;" d="M 32.691406 13.371094 C 32.558594 13.53125 32.570312 13.539062 32.730469 13.410156 C 32.890625 13.28125 32.941406 13.199219 32.859375 13.199219 C 32.839844 13.199219 32.761719 13.28125 32.691406 13.371094 Z M 32.691406 13.371094 "/>
<path style=" stroke:none;fill-rule:nonzero;fill:rgb(0%,0%,0%);fill-opacity:1;" d="M 44.648438 13.671875 C 45.050781 14.078125 46.808594 15.601562 46.878906 15.601562 C 46.921875 15.589844 46.730469 15.390625 46.449219 15.140625 C 45.808594 14.570312 44.390625 13.398438 44.648438 13.671875 Z M 44.648438 13.671875 "/>
<path style=" stroke:none;fill-rule:nonzero;fill:rgb(0%,0%,0%);fill-opacity:1;" d="M 43.539062 14.449219 C 43.550781 14.539062 43.621094 14.660156 43.699219 14.730469 C 43.800781 14.828125 43.808594 14.820312 43.75 14.710938 C 43.691406 14.601562 43.710938 14.578125 43.828125 14.628906 C 44.070312 14.71875 44.039062 14.648438 43.761719 14.46875 C 43.550781 14.328125 43.519531 14.328125 43.539062 14.449219 Z M 43.539062 14.449219 "/>
<path style=" stroke:none;fill-rule:nonzero;fill:rgb(0%,0%,0%);fill-opacity:1;" d="M 41.5 15.441406 C 41.5 15.46875 41.640625 15.558594 41.800781 15.648438 C 41.96875 15.738281 42.101562 15.78125 42.101562 15.761719 C 42.101562 15.730469 41.96875 15.640625 41.800781 15.550781 C 41.640625 15.460938 41.5 15.421875 41.5 15.441406 Z M 41.5 15.441406 "/>
<path style=" stroke:none;fill-rule:nonzero;fill:rgb(0%,0%,0%);fill-opacity:1;" d="M 33.53125 15.671875 C 33.621094 15.691406 33.78125 15.691406 33.878906 15.671875 C 33.96875 15.640625 33.890625 15.621094 33.699219 15.621094 C 33.511719 15.621094 33.429688 15.640625 33.53125 15.671875 Z M 33.53125 15.671875 "/>
<path style=" stroke:none;fill-rule:nonzero;fill:rgb(0%,0%,0%);fill-opacity:1;" d="M 65.058594 15.789062 C 65.019531 15.851562 64.941406 15.871094 64.878906 15.839844 C 64.828125 15.808594 64.898438 15.960938 65.050781 16.191406 C 65.359375 16.660156 65.5 16.710938 65.5 16.359375 C 65.5 16.058594 65.160156 15.621094 65.058594 15.789062 Z M 65.058594 15.789062 "/>
<path style=" stroke:none;fill-rule:nonzero;fill:rgb(0%,0%,0%);fill-opacity:1;" d="M 36.28125 15.871094 C 36.339844 15.890625 36.460938 15.890625 36.53125 15.871094 C 36.589844 15.839844 36.539062 15.820312 36.398438 15.820312 C 36.261719 15.820312 36.210938 15.839844 36.28125 15.871094 Z M 36.28125 15.871094 "/>
<path style=" stroke:none;fill-rule:nonzero;fill:rgb(0%,0%,0%);fill-opacity:1;" d="M 36.878906 15.96875 C 36.941406 15.988281 37.058594 15.988281 37.128906 15.96875 C 37.191406 15.941406 37.140625 15.921875 37 15.921875 C 36.859375 15.921875 36.808594 15.941406 36.878906 15.96875 Z M 36.878906 15.96875 "/>
<path style=" stroke:none;fill-rule:nonzero;fill:rgb(0%,0%,0%);fill-opacity:1;" d="M 59.820312 17 C 59.820312 17.140625 59.839844 17.191406 59.871094 17.121094 C 59.890625 17.058594 59.890625 16.941406 59.871094 16.871094 C 59.839844 16.808594 59.820312 16.859375 59.820312 17 Z M 59.820312 17 "/>
<path style=" stroke:none;fill-rule:nonzero;fill:rgb(0%,0%,0%);fill-opacity:1;" d="M 59.921875 17.851562 C 59.921875 18.011719 59.941406 18.070312 59.96875 17.96875 C 59.988281 17.878906 59.988281 17.738281 59.96875 17.671875 C 59.941406 17.609375 59.921875 17.679688 59.921875 17.851562 Z M 59.921875 17.851562 "/>
<path style=" stroke:none;fill-rule:nonzero;fill:rgb(0%,0%,0%);fill-opacity:1;" d="M 33.628906 17.871094 C 33.71875 17.890625 33.859375 17.890625 33.929688 17.871094 C 33.988281 17.839844 33.921875 17.820312 33.75 17.820312 C 33.589844 17.820312 33.53125 17.839844 33.628906 17.871094 Z M 33.628906 17.871094 "/>
<path style=" stroke:none;fill-rule:nonzero;fill:rgb(0%,0%,0%);fill-opacity:1;" d="M 32.980469 17.96875 C 33.050781 18 33.140625 17.988281 33.171875 17.960938 C 33.210938 17.929688 33.148438 17.898438 33.039062 17.910156 C 32.929688 17.910156 32.898438 17.941406 32.980469 17.96875 Z M 32.980469 17.96875 "/>
<path style=" stroke:none;fill-rule:nonzero;fill:rgb(0%,0%,0%);fill-opacity:1;" d="M 43.769531 19.210938 C 43.738281 19.328125 43.738281 19.488281 43.78125 19.578125 C 43.871094 19.800781 44.101562 19.851562 44.101562 19.648438 C 44.101562 19.570312 44.101562 19.480469 44.101562 19.449219 C 44.101562 19.421875 44.070312 19.398438 44.03125 19.410156 C 43.980469 19.421875 43.960938 19.460938 43.980469 19.519531 C 43.988281 19.570312 43.960938 19.589844 43.898438 19.550781 C 43.851562 19.519531 43.828125 19.378906 43.859375 19.238281 C 43.890625 19.109375 43.898438 19 43.871094 19 C 43.851562 19 43.800781 19.089844 43.769531 19.210938 Z M 43.769531 19.210938 "/>
<path style=" stroke:none;fill-rule:nonzero;fill:rgb(0%,0%,0%);fill-opacity:1;" d="M 43.199219 23.300781 C 43.199219 23.351562 43.199219 23.429688 43.210938 23.46875 C 43.210938 23.511719 43.128906 23.578125 43.03125 23.621094 C 42.859375 23.691406 42.859375 23.699219 43.039062 23.671875 C 43.199219 23.648438 43.398438 23.199219 43.25 23.199219 C 43.21875 23.199219 43.199219 23.238281 43.199219 23.300781 Z M 43.199219 23.300781 "/>
<path style=" stroke:none;fill-rule:nonzero;fill:rgb(0%,0%,0%);fill-opacity:1;" d="M 40.410156 26.761719 C 40.339844 26.839844 40.300781 26.929688 40.320312 26.960938 C 40.351562 26.980469 40.449219 26.910156 40.550781 26.800781 C 40.648438 26.691406 40.691406 26.601562 40.640625 26.601562 C 40.589844 26.609375 40.488281 26.679688 40.410156 26.761719 Z M 40.410156 26.761719 "/>
<path style=" stroke:none;fill-rule:nonzero;fill:rgb(0%,0%,0%);fill-opacity:1;" d="M 39.308594 27.558594 C 39.308594 27.671875 39.339844 27.699219 39.371094 27.621094 C 39.398438 27.550781 39.390625 27.460938 39.359375 27.429688 C 39.328125 27.390625 39.300781 27.449219 39.308594 27.558594 Z M 39.308594 27.558594 "/>
<path style=" stroke:none;fill-rule:nonzero;fill:rgb(0%,0%,0%);fill-opacity:1;" d="M 35.800781 30.988281 C 35.800781 31.058594 35.75 31.078125 35.679688 31.039062 C 35.609375 30.988281 35.601562 31.011719 35.648438 31.089844 C 35.699219 31.179688 35.75 31.191406 35.828125 31.109375 C 35.890625 31.050781 35.910156 30.96875 35.871094 30.929688 C 35.828125 30.898438 35.800781 30.921875 35.800781 30.988281 Z M 35.800781 30.988281 "/>
<path style=" stroke:none;fill-rule:nonzero;fill:rgb(0%,0%,0%);fill-opacity:1;" d="M 34.359375 33.480469 C 34.339844 33.519531 34.351562 33.621094 34.390625 33.691406 C 34.449219 33.78125 34.5 33.789062 34.539062 33.710938 C 34.578125 33.648438 34.558594 33.601562 34.5 33.601562 C 34.441406 33.601562 34.421875 33.550781 34.449219 33.5 C 34.480469 33.441406 34.488281 33.398438 34.460938 33.398438 C 34.429688 33.398438 34.390625 33.441406 34.359375 33.480469 Z M 34.359375 33.480469 "/>
<path style=" stroke:none;fill-rule:nonzero;fill:rgb(0%,0%,0%);fill-opacity:1;" d="M 33.609375 34.078125 C 33.621094 34.121094 33.621094 34.21875 33.609375 34.300781 C 33.601562 34.429688 33.589844 34.429688 33.5 34.300781 C 33.441406 34.210938 33.398438 34.199219 33.398438 34.269531 C 33.398438 34.488281 33.589844 34.511719 33.699219 34.300781 C 33.761719 34.179688 33.859375 34.121094 33.929688 34.160156 C 34 34.199219 34.011719 34.191406 33.96875 34.148438 C 33.878906 34.039062 33.601562 33.988281 33.609375 34.078125 Z M 33.609375 34.078125 "/>
<path style=" stroke:none;fill-rule:nonzero;fill:rgb(0%,0%,0%);fill-opacity:1;" d="M 28.800781 35.378906 C 28.800781 35.441406 28.851562 35.519531 28.898438 35.550781 C 28.980469 35.601562 28.980469 35.660156 28.898438 35.75 C 28.820312 35.851562 28.828125 35.898438 28.96875 35.941406 C 29.070312 35.96875 29.191406 35.988281 29.238281 35.988281 C 29.289062 35.988281 29.371094 36.039062 29.421875 36.121094 C 29.5 36.21875 29.511719 36.21875 29.46875 36.101562 C 29.449219 36.019531 29.371094 35.960938 29.308594 35.96875 C 29.25 35.988281 29.199219 35.949219 29.199219 35.890625 C 29.199219 35.828125 29.109375 35.671875 29 35.53125 C 28.890625 35.390625 28.800781 35.320312 28.800781 35.378906 Z M 28.800781 35.378906 "/>
</g>
</svg>
